<?xml version="1.0" encoding="UTF-8" standalone="no"?>
<!-- Created with Inkscape (http://www.inkscape.org/) -->

<svg
   width="166.4229mm"
   height="221.19167mm"
   viewBox="0 0 166.4229 221.19166"
   version="1.1"
   id="svg1"
   xml:space="preserve"
   inkscape:version="1.3.2 (091e20e, 2023-11-25, custom)"
   sodipodi:docname="2Fairfax.svg"
   xmlns:inkscape="http://www.inkscape.org/namespaces/inkscape"
   xmlns:sodipodi="http://sodipodi.sourceforge.net/DTD/sodipodi-0.dtd"
   xmlns:xlink="http://www.w3.org/1999/xlink"
   xmlns="http://www.w3.org/2000/svg"
   xmlns:svg="http://www.w3.org/2000/svg"><sodipodi:namedview
     id="namedview1"
     pagecolor="#505050"
     bordercolor="#ffffff"
     borderopacity="1"
     inkscape:showpageshadow="0"
     inkscape:pageopacity="0"
     inkscape:pagecheckerboard="1"
     inkscape:deskcolor="#d1d1d1"
     inkscape:document-units="mm"
     showgrid="true"
     inkscape:zoom="1"
     inkscape:cx="116"
     inkscape:cy="388.5"
     inkscape:window-width="1858"
     inkscape:window-height="1057"
     inkscape:window-x="3832"
     inkscape:window-y="-8"
     inkscape:window-maximized="1"
     inkscape:current-layer="svg1"><inkscape:grid
       id="grid5"
       units="px"
       originx="-1.4552085"
       originy="-0.92604148"
       spacingx="0.26458334"
       spacingy="0.26458334"
       empcolor="#0099e5"
       empopacity="0.30196078"
       color="#0099e5"
       opacity="0.14901961"
       empspacing="5"
       dotted="false"
       gridanglex="30"
       gridanglez="30"
       visible="true" /></sodipodi:namedview><defs
     id="defs1"><linearGradient
       id="swatch75"
       inkscape:swatch="solid"><stop
         style="stop-color:#ff8000;stop-opacity:1;"
         offset="0"
         id="stop75" /></linearGradient><pattern
       inkscape:collect="always"
       xlink:href="#Strips1_1.5"
       preserveAspectRatio="xMidYMid"
       id="pattern19"
       patternTransform="matrix(0,0.5,-0.5,0,0,0)"
       x="0"
       y="0" /><pattern
       inkscape:collect="always"
       patternUnits="userSpaceOnUse"
       width="2.5"
       height="1"
       patternTransform="translate(0,0) scale(2,2)"
       preserveAspectRatio="xMidYMid"
       id="Strips1_1.5"
       style="fill:#808080"
       inkscape:stockid="Stripes 02 (2:3)"
       inkscape:isstock="true"
       inkscape:label="Stripes 02 (2:3)">
      <rect
   style="stroke:none"
   x="0"
   y="-0.5"
   width="1"
   height="2"
   id="rect140" />
    </pattern><inkscape:path-effect
       effect="bspline"
       id="path-effect1"
       is_visible="true"
       lpeversion="1.3"
       weight="33.333333"
       steps="2"
       helper_size="0"
       apply_no_weight="true"
       apply_with_weight="true"
       only_selected="false"
       uniform="false" /><filter
       id="mask-powermask-path-effect5_inverse"
       inkscape:label="filtermask-powermask-path-effect5"
       style="color-interpolation-filters:sRGB"
       height="100"
       width="100"
       x="-50"
       y="-50"><feColorMatrix
         id="mask-powermask-path-effect5_primitive1"
         values="1"
         type="saturate"
         result="fbSourceGraphic" /><feColorMatrix
         id="mask-powermask-path-effect5_primitive2"
         values="-1 0 0 0 1 0 -1 0 0 1 0 0 -1 0 1 0 0 0 1 0 "
         in="fbSourceGraphic" /></filter><pattern
       inkscape:collect="always"
       xlink:href="#Strips1_1.5-9"
       preserveAspectRatio="xMidYMid"
       id="pattern19-9"
       patternTransform="matrix(0,0.5,-0.5,0,0,0)"
       x="0"
       y="0" /><pattern
       inkscape:collect="always"
       patternUnits="userSpaceOnUse"
       width="2.5"
       height="1"
       patternTransform="translate(0,0) scale(2,2)"
       preserveAspectRatio="xMidYMid"
       id="Strips1_1.5-9"
       style="fill:#808080"
       inkscape:stockid="Stripes 02 (2:3)"
       inkscape:isstock="true"
       inkscape:label="Stripes 02 (2:3)">
      <rect
   style="stroke:none"
   x="0"
   y="-0.5"
   width="1"
   height="2"
   id="rect140-8" />
    </pattern><pattern
       inkscape:collect="always"
       xlink:href="#Strips1_1.5-9-0"
       preserveAspectRatio="xMidYMid"
       id="pattern19-9-9"
       patternTransform="matrix(0,0.5,-0.5,0,0,0)"
       x="0"
       y="0" /><pattern
       inkscape:collect="always"
       patternUnits="userSpaceOnUse"
       width="2.5"
       height="1"
       patternTransform="translate(0,0) scale(2,2)"
       preserveAspectRatio="xMidYMid"
       id="Strips1_1.5-9-0"
       style="fill:#808080"
       inkscape:stockid="Stripes 02 (2:3)"
       inkscape:isstock="true"
       inkscape:label="Stripes 02 (2:3)">
      <rect
   style="stroke:none"
   x="0"
   y="-0.5"
   width="1"
   height="2"
   id="rect140-8-2" />
    </pattern></defs><rect
     style="display:inline;fill:#000000;fill-opacity:1;fill-rule:nonzero;stroke:none;stroke-width:0.529167;stroke-linecap:square;stroke-linejoin:miter;stroke-dasharray:none;stroke-dashoffset:0;stroke-opacity:1;paint-order:markers stroke fill"
     id="Black"
     width="166.4229"
     height="221.19167"
     x="-2.7880861e-07"
     y="-9.7119141e-07"
     inkscape:label="Black" /><g
     id="f0Structure"
     inkscape:label="f0Structure"><rect
       style="display:inline;fill:#000000;fill-opacity:0.75;fill-rule:nonzero;stroke:none;stroke-width:0.529167;stroke-linecap:square;stroke-linejoin:miter;stroke-dasharray:none;stroke-dashoffset:0;stroke-opacity:1;paint-order:markers stroke fill"
       id="BG"
       width="166.423"
       height="221.19167"
       x="-3.2788087e-06"
       y="2.8808593e-08"
       inkscape:label="BG" /><g
       id="Walls"
       inkscape:label="Walls"
       transform="translate(-105.79375,-27.509642)"><path
         style="fill:none;fill-opacity:1;stroke:#ffffff;stroke-width:0.264583;stroke-linecap:square;stroke-linejoin:miter;stroke-dasharray:none;stroke-dashoffset:0;stroke-opacity:1;paint-order:markers stroke fill"
         d="M 186.35937,149.08569 H 105.92604 V 58.598185 h 1.5875 V 89.81902 h 50.27083 v 1.5875 h -50.27083 v 56.09167 h 74.34792 V 109.1336 h 4.7625 v 1.5875 h -3.175 v 19.57917"
         id="West"
         inkscape:label="West" /><path
         style="fill:none;fill-opacity:1;stroke:#ffffff;stroke-width:0.264583;stroke-linecap:square;stroke-linejoin:miter;stroke-dasharray:none;stroke-dashoffset:0;stroke-opacity:1;paint-order:markers stroke fill"
         d="M 197.73646,131.09402 V 110.7211 h -3.175 v -1.5875 h 29.63332 v -6.35 h 1.5875 v 6.35 h 27.25208 V 89.81902 h 1.5875 v 9.525 h 3.175 v 1.85208 h -3.175 v 9.525 h -38.36458 v 36.77709 h 17.4625 v 3.175 h -5.55625 v 0 0"
         id="Central"
         inkscape:label="Central" /><path
         style="fill:none;fill-opacity:1;stroke:#ffffff;stroke-width:0.264583;stroke-linecap:square;stroke-linejoin:miter;stroke-dasharray:none;stroke-dashoffset:0;stroke-opacity:1;paint-order:markers stroke fill"
         d="m 186.09479,46.691934 h -80.16875 v 3.968751 h 1.5875 v -2.38125 h 65.61667 V 89.81902 h -7.40834 v 1.5875 h 41.01041 V 73.150267 H 204.8802 V 89.81902 H 174.71771 V 48.279435 h 30.16249 v 16.933333 h 1.85208 V 48.279435 h 17.4625 V 94.58152 h 1.5875 V 48.279435 h 46.30208 V 99.34402 h -6.35 v 1.85208 h 6.35 v 46.30209 h -30.42708 v 3.175 h 6.35"
         id="East"
         inkscape:label="East" /><path
         style="fill:none;fill-opacity:1;stroke:#ffffff;stroke-width:0.264583;stroke-linecap:square;stroke-linejoin:miter;stroke-dasharray:none;stroke-dashoffset:0;stroke-opacity:1;paint-order:markers stroke fill"
         d="m 202.23437,224.22736 h 1.5875 v -23.01875"
         id="PrisonWN"
         inkscape:label="PrisonWN" /><path
         style="fill:none;fill-opacity:1;stroke:#ffffff;stroke-width:0.264583;stroke-linecap:square;stroke-linejoin:miter;stroke-dasharray:none;stroke-dashoffset:0;stroke-opacity:1;paint-order:markers stroke fill"
         d="m 201.96978,232.42944 h 1.85209 v 14.02292"
         id="PrisonWS"
         inkscape:label="PrisonWS" /><path
         style="fill:none;fill-opacity:1;stroke:#ffffff;stroke-width:0.264583;stroke-linecap:square;stroke-linejoin:miter;stroke-dasharray:none;stroke-dashoffset:0;stroke-opacity:1;paint-order:markers stroke fill"
         d="m 228.95728,201.20861 v 45.24375"
         id="PrisonE"
         inkscape:label="PrisonE" /><path
         style="fill:none;fill-opacity:1;stroke:#ffffff;stroke-width:0.264583;stroke-linecap:square;stroke-linejoin:miter;stroke-dasharray:none;stroke-dashoffset:0;stroke-opacity:1;paint-order:markers stroke fill"
         d="m 203.82187,246.45236 c 0,0 6.35,2.11666 12.96458,2.11666 6.61458,0 12.17083,-2.11666 12.17083,-2.11666"
         id="PrisonS"
         inkscape:label="PrisonS" /><path
         style="fill:none;fill-opacity:1;stroke:#ffffff;stroke-width:0.264583;stroke-linecap:square;stroke-linejoin:miter;stroke-dasharray:none;stroke-dashoffset:0;stroke-opacity:1;paint-order:markers stroke fill"
         d="m 228.9494,201.25638 c 0,0 -6.34215,-2.14006 -12.95669,-2.16444 -6.61453,-0.0244 -12.17854,2.07179 -12.17854,2.07179"
         id="PrisonN"
         inkscape:label="PrisonN" /><path
         style="fill:none;fill-opacity:1;stroke:#ffffff;stroke-width:0.264583;stroke-linecap:square;stroke-linejoin:miter;stroke-dasharray:none;stroke-dashoffset:0;stroke-opacity:1;paint-order:markers stroke fill"
         d="m 201.96978,232.42944 c 0.29168,0.96865 0.44477,2.46564 -0.33073,3.24114 -0.27241,0.27241 -0.77078,0.78609 -1.19062,0.92604 -0.84098,0.28033 -1.81896,-0.0165 -2.71198,0.13229 -0.35912,0.0598 -1.40095,0.19606 -1.71979,0.13229 -0.80472,-0.16094 -1.61462,-0.39037 -2.4474,-0.52916 -0.55806,-0.093 -1.15947,0.08 -1.71979,0 -2.55426,-0.3649 -5.13385,-0.43103 -7.67292,-0.79375 -0.53685,-0.0767 -2.06331,-0.65335 -2.57968,-0.8599 -0.0579,-0.0232 -0.0731,-0.11257 -0.1323,-0.13229 -0.0837,-0.0279 -0.17727,0.0125 -0.26458,0 -0.40048,-0.0572 -0.81244,-0.35901 -1.12448,-0.46302 -0.0837,-0.0279 -0.17759,0.0145 -0.26458,0 -0.26427,-0.044 -1.3731,-0.6455 -1.5875,-0.8599 -0.98537,-0.98536 -1.82315,-2.45566 -2.4474,-3.70416 -0.42449,-0.849 -0.56266,-2.78067 -0.7276,-3.77032 -0.0644,-0.38615 0.0644,-0.80447 0,-1.19062 -0.55746,-3.34476 -0.52917,-6.75518 -0.52917,-10.18646 0,-1.66216 -0.0661,-3.30541 -0.0661,-4.96094 0,-1.70038 0.27769,-3.51941 -0.1323,-5.15937 -0.0571,-0.22827 0.0571,-0.49934 0,-0.72761 -0.13297,-0.53189 -0.0915,-1.1344 -0.26458,-1.65364 -0.0544,-0.21599 0.0362,-0.44397 -4e-5,-0.66146 -0.0559,-0.33546 -0.22435,-0.63007 -0.26458,-0.99219 -0.14078,-1.26701 -0.14154,-2.69492 0,-3.96875 0.062,-0.5579 0.30663,-1.11217 0.39687,-1.65364 0.0504,-0.3023 0.0728,-0.56662 0.19844,-0.8599 0.41398,-0.96595 0.86303,-1.85834 1.32292,-2.77812 0.21905,-0.4381 0.55759,-0.80342 0.7276,-1.25677 0.32905,-0.87745 1.17477,-2.82842 1.85209,-3.50573 0.33168,-0.33168 0.61237,-0.64119 0.99218,-0.92605 0.1542,-0.11564 0.17022,-0.28986 0.33073,-0.39687 0.37769,-0.25179 0.7848,-0.56268 1.12448,-0.8599 0.10625,-0.093 0.15739,-0.23885 0.26459,-0.33073 0.0529,-0.0454 0.13865,-0.0303 0.19843,-0.0661 0.30249,-0.18149 0.5564,-0.5564 0.79375,-0.79375 0.19069,-0.19069 0.4737,-0.34141 0.66146,-0.52917 0.1839,-0.18389 0.58025,-0.20873 0.79375,-0.33073 0.10829,-0.0619 0.15763,-0.20041 0.26458,-0.26458 0.2462,-0.14772 1.05491,-0.52222 1.32292,-0.59531 0.2838,-0.0774 0.58836,-0.0853 0.8599,-0.19844 0.35584,-0.14827 0.64963,-0.299 0.99218,-0.39688 1.01751,-0.29071 -0.50336,0.32106 0.52917,-0.0661 0.89548,-0.3358 1.77365,-0.78367 2.71198,-0.99219 1.03745,-0.23054 2.08044,-0.16834 3.10885,-0.39687 1.33093,-0.29577 2.528,-0.72435 3.77032,-1.25677 0.20509,-0.0879 0.38754,-0.0433 0.59531,-0.1323 0.78044,-0.33447 1.74795,-0.58581 2.57969,-0.79375 0.12834,-0.0321 0.26591,0.0187 0.39687,0 0.13805,-0.0197 0.26014,-0.10494 0.39688,-0.13229 0.62157,-0.12431 1.35097,-0.0929 1.98437,-0.19844 0.23541,-0.0392 0.49068,0.0296 0.72761,0 0.69043,-0.0863 1.36339,-0.31098 2.05052,-0.39687 0.69913,-0.0874 1.42232,-0.0827 2.11666,-0.19844 0.52625,-0.0877 1.13548,0.009 1.65365,0.0661 0.82818,0.092 1.67516,0.0661 2.51354,0.0661 1.02003,-0.0853 2.10058,-0.14403 3.10886,1e-5 0.15278,0.0218 0.31328,-0.0374 0.46302,0 0.44952,0.11239 0.97065,0.24997 1.4552,0.33073 0.58227,0.097 1.16252,0.10537 1.7198,0.26459 0.42364,0.12104 0.89118,0.0122 1.32291,0.0661 0.66691,0.0834 1.31287,0.18997 1.98438,0.26459 0.62006,0.0689 1.30738,-0.12217 1.91823,0 0.48348,0.0967 1.02712,0.28954 1.52135,0.33072 0.92802,0.0773 1.94842,-0.0917 2.84427,0.1323 0.16203,0.0405 0.371,-0.0527 0.52917,0 0.14648,0.0488 0.94174,0.18273 1.05833,0.0661 0.2094,-0.20939 0.34766,-0.61224 0.52917,-0.79375 0.058,-0.0581 0.007,-0.77602 0,-0.79375 -0.18824,-0.47059 -0.75384,-0.78462 -1.05833,-1.19062 -0.30031,-0.40041 -0.55162,-1.08199 -0.66146,-1.52136 -0.0394,-0.15742 -0.3971,-0.5296 -0.46302,-0.66146 -0.0296,-0.0592 0.0246,-0.13702 0,-0.19843 -0.10763,-0.26908 -0.3016,-0.57405 -0.39688,-0.8599 -0.18328,-0.54985 0.0353,-2.59291 0.13229,-3.175 0.0781,-0.46878 0.2924,-0.91891 0.39688,-1.38906 0.14331,-0.64488 0.21492,-1.36414 0.46302,-1.98438 0.21609,-0.54022 0.38995,-1.09679 0.52917,-1.65364 0.11527,-0.4611 0.0702,-1.22281 0.13229,-1.71979 0.0467,-0.37376 0.17924,-0.78314 0.26458,-1.12448 0.0467,-0.18677 -0.0467,-0.40855 0,-0.59532 0.25044,-1.00173 0.1136,-2.8529 -0.13229,-3.83645 -0.0368,-0.14703 -0.13224,-0.46292 -0.19844,-0.59532 l -0.9095,-1.88507 c -0.14608,-0.46744 -0.22842,-0.9612 -0.33073,-1.43867 -0.0526,-0.24545 -0.13902,-0.48993 -0.19844,-0.72761 -0.0238,-0.0952 0,-0.24809 0,-0.34726 0,-0.10674 0.0331,-0.21647 0.0331,-0.3142 0,-0.0393 0.0165,-0.0679 0.0165,-0.0992 0,-0.006 -0.004,-0.0198 0,-0.0165 0.0249,0.0187 0.0441,0.0441 0.0661,0.0661"
         id="TunnelW"
         sodipodi:nodetypes="cssssscssscssssscsssccsssscssssssscssssssssssscsssssssccscsscssssssccssscsssssssssccssssscc"
         inkscape:label="TunnelW" /><path
         style="fill:none;fill-opacity:1;stroke:#ffffff;stroke-width:0.264583;stroke-linecap:square;stroke-linejoin:miter;stroke-dasharray:none;stroke-dashoffset:0;stroke-opacity:1;paint-order:markers stroke fill"
         d="m 202.23437,224.22736 c -1.33861,-3.19113 -1.32292,-6.7188 -1.32292,-10.18647 0,-0.93969 -0.14682,-2.07311 0.13229,-2.91042 0.12303,-0.3691 0,-1.08819 0,-1.4552 0,-0.64058 0.274,-1.96554 0,-2.51355 -0.78414,-1.56827 -1.06884,-4.18086 -0.66146,-6.2177 0.1506,-0.75296 -0.11102,-1.51907 0.13229,-2.24896 0.0919,-0.27566 -0.013,-2.10378 0.1323,-2.24896 0.35269,-0.35269 0.83084,-0.56626 1.19062,-0.92604 0.14965,-0.14966 1.53199,-0.0384 1.98438,-0.26459 1.9291,-0.96455 3.89239,-0.79375 6.08541,-0.79375 0.52245,0 1.20685,0.10259 1.71979,0 1.04746,-0.20949 2.6252,-0.34808 3.70417,-0.13229 2.2265,0.4453 4.36264,0.86892 6.61458,1.19063 1.75689,0.25098 3.68393,-0.21572 5.42396,0.13229 2.39281,0.47856 5.32125,0.45562 7.67292,-0.13229 0.1896,-0.0474 0.6346,0.1061 0.79375,0 0.082,-0.0547 0.0502,-0.20989 0.13229,-0.26459 0.18346,-0.1223 0.44754,0.0535 0.66146,0 0.81351,-0.20338 1.66182,-0.71311 2.51354,-0.92604 0.99086,-0.24771 1.9245,-0.62154 2.77813,-1.19062 1.12879,-0.75253 1.85282,-2.11765 2.64583,-3.175 0.31057,-0.41411 1.00803,-0.74346 1.45521,-1.19063 0.20701,-0.207 0.43791,-0.43792 0.66146,-0.66146 0.15859,-0.15859 0.46344,-3.77162 0.66145,-4.36562 0.0568,-0.17036 0.3401,-0.35881 0.39688,-0.52917 0.0558,-0.16734 -0.0558,-0.36183 0,-0.52916 0.19582,-0.58746 0.62524,-1.11821 0.92604,-1.7198 0.28046,-0.5609 0.38669,-1.30256 0.66146,-1.85208 0.24693,-0.49389 -0.24694,-1.3582 0,-1.85208 0.59224,-1.18448 0.0562,-4.93467 -0.26458,-6.21771 -0.0906,-0.36234 0.11813,-0.83622 0,-1.19063 -0.36288,-1.08863 -0.29814,-2.34959 -0.66146,-3.43958 -0.20204,-0.6061 0.0645,-1.39387 -0.13229,-1.98437 -0.12595,-0.37781 0,-1.05001 0,-1.45521 0,-1.05 -0.0999,-3.04003 0.13229,-3.96875 0.28794,-1.15181 0.66146,-2.39245 0.66146,-3.57188 0,-0.60288 -0.22927,-4.01723 -0.66146,-4.23333 -0.10523,-0.0526 -0.96772,-0.8146 -0.39688,-0.52916"
         id="TunnelE"
         inkscape:label="TunnelE" /></g><g
       id="g13"
       inkscape:label="Stairs"
       transform="translate(-105.79375,-27.509642)"><rect
         style="fill:url(#pattern19-9-9);fill-opacity:1;stroke:none;stroke-width:0.264583;stroke-linecap:butt;stroke-linejoin:miter;stroke-dasharray:none;stroke-dashoffset:0;stroke-opacity:1;paint-order:markers stroke fill"
         id="Stairs"
         width="13.229168"
         height="16.668743"
         x="183.97813"
         y="117.07111"
         inkscape:label="Stairs" /></g><g
       id="Furniture"
       inkscape:label="Furniture"
       transform="translate(-105.79375,-27.509642)"><path
         style="fill:none;fill-opacity:1;stroke:#808080;stroke-width:0.264583;stroke-linecap:square;stroke-linejoin:miter;stroke-dasharray:none;stroke-dashoffset:0;stroke-opacity:1;paint-order:markers stroke fill"
         d="m 145.61354,116.54194 h 7.67292 v -4.49792 h 7.9375 v 16.13958 h 8.46666 v 7.93751 h -26.9875 v -7.14376 h 2.91042 z"
         id="RatCages"
         inkscape:label="RatCages" /><rect
         style="fill:none;fill-opacity:1;stroke:#808080;stroke-width:0.264583;stroke-linecap:square;stroke-linejoin:miter;stroke-dasharray:none;stroke-dashoffset:0;stroke-opacity:1;paint-order:markers stroke fill"
         id="Boiler"
         width="6.0854168"
         height="10.847917"
         x="187.94687"
         y="73.944023"
         inkscape:label="Boiler" /><rect
         style="fill:none;fill-opacity:1;stroke:#808080;stroke-width:0.264583;stroke-linecap:square;stroke-linejoin:miter;stroke-dasharray:none;stroke-dashoffset:0;stroke-opacity:1;paint-order:markers stroke fill"
         id="Van"
         width="37.571442"
         height="15.040218"
         x="116.89013"
         y="57.341629"
         transform="rotate(5.4184372)"
         inkscape:label="Van" /><rect
         style="fill:none;fill-opacity:1;stroke:#808080;stroke-width:0.264583;stroke-linecap:square;stroke-linejoin:miter;stroke-dasharray:none;stroke-dashoffset:0;stroke-opacity:1;paint-order:markers stroke fill"
         id="Shelf"
         width="4.7624998"
         height="13.229168"
         x="247.74269"
         y="95.375275"
         inkscape:label="Shelf" /><rect
         style="fill:none;fill-opacity:1;stroke:#808080;stroke-width:0.264583;stroke-linecap:square;stroke-linejoin:miter;stroke-dasharray:none;stroke-dashoffset:0;stroke-opacity:1;paint-order:markers stroke fill"
         id="Pillar"
         width="3.175"
         height="3.1750002"
         x="254.62187"
         y="69.446106"
         inkscape:label="Pillar" /><rect
         style="fill:none;fill-opacity:1;stroke:#808080;stroke-width:0.264583;stroke-linecap:square;stroke-linejoin:miter;stroke-dasharray:none;stroke-dashoffset:0;stroke-opacity:1;paint-order:markers stroke fill"
         id="Bed"
         width="21.816639"
         height="10.443208"
         x="232.17839"
         y="46.881641"
         transform="rotate(4.6317783)"
         inkscape:label="Bed" /><rect
         style="fill:none;fill-opacity:1;stroke:#808080;stroke-width:0.264583;stroke-linecap:square;stroke-linejoin:miter;stroke-dasharray:none;stroke-dashoffset:0;stroke-opacity:1;paint-order:markers stroke fill"
         id="Plywood"
         width="8.4666662"
         height="0.52916664"
         x="191.12187"
         y="196.97527"
         inkscape:label="Plywood" /><path
         style="display:inline;fill:#ff8000;fill-opacity:1;fill-rule:nonzero;stroke:#808080;stroke-width:0.264583;stroke-linecap:square;stroke-linejoin:miter;stroke-dasharray:none;stroke-dashoffset:0;stroke-opacity:1;paint-order:markers stroke fill"
         d="m 76.292709,129.50652 v 21.16667 0"
         id="Curtain"
         inkscape:label="Curtain"
         transform="translate(170.39167,-18.25625)" /></g></g><g
     id="f0NPCs"
     inkscape:label="f0NPCs"
     transform="translate(64.59792,-45.765892)"><path
       d="m 49.950821,224.04627 q 0,0.41083 -0.105937,0.79065 -0.105936,0.37982 -0.299723,0.71055 -0.193787,0.32815 -0.465088,0.59945 -0.271302,0.2713 -0.602031,0.46509 -0.328146,0.19378 -0.707968,0.29972 -0.379822,0.10594 -0.79065,0.10594 -0.410827,0 -0.790649,-0.10594 -0.379822,-0.10594 -0.710552,-0.29972 -0.328145,-0.19379 -0.599447,-0.46509 -0.271301,-0.2713 -0.465088,-0.59945 -0.193787,-0.33073 -0.299723,-0.71055 -0.105937,-0.37982 -0.105937,-0.79065 0,-0.41083 0.105937,-0.79065 0.105936,-0.37982 0.299723,-0.70797 0.193787,-0.33073 0.465088,-0.60203 0.271302,-0.2713 0.599447,-0.46509 0.33073,-0.19378 0.710552,-0.29972 0.379822,-0.10594 0.790649,-0.10594 0.410828,0 0.79065,0.10594 0.379822,0.10594 0.707968,0.29972 0.330729,0.19379 0.602031,0.46509 0.271301,0.2713 0.465088,0.60203 0.193787,0.32815 0.299723,0.70797 0.105937,0.37982 0.105937,0.79065 z"
       id="L1i"
       style="font-size:5.29167px;line-height:0.86;font-family:Arial;-inkscape-font-specification:Arial;letter-spacing:0px;word-spacing:0px;fill:#ff0000;stroke:#ffffff;stroke-width:0.529167;stroke-linecap:square;paint-order:markers stroke fill"
       inkscape:label="L1i"
       aria-label="⚫" /><path
       d="m 49.015381,250.79995 q 0,0.41082 -0.105937,0.79065 -0.105936,0.37982 -0.299723,0.71055 -0.193787,0.32814 -0.465088,0.59944 -0.271302,0.27131 -0.602031,0.46509 -0.328146,0.19379 -0.707968,0.29973 -0.379822,0.10593 -0.79065,0.10593 -0.410828,0 -0.79065,-0.10593 -0.379822,-0.10594 -0.710551,-0.29973 -0.328145,-0.19378 -0.599447,-0.46509 -0.271301,-0.2713 -0.465088,-0.59944 -0.193787,-0.33073 -0.299724,-0.71055 -0.105936,-0.37983 -0.105936,-0.79065 0,-0.41083 0.105936,-0.79065 0.105937,-0.37983 0.299724,-0.70797 0.193787,-0.33073 0.465088,-0.60203 0.271302,-0.2713 0.599447,-0.46509 0.330729,-0.19379 0.710551,-0.29972 0.379822,-0.10594 0.79065,-0.10594 0.410828,0 0.79065,0.10594 0.379822,0.10593 0.707968,0.29972 0.330729,0.19379 0.602031,0.46509 0.271301,0.2713 0.465088,0.60203 0.193787,0.32814 0.299723,0.70797 0.105937,0.37982 0.105937,0.79065 z"
       id="L2"
       style="font-size:5.29167px;line-height:0.86;font-family:Arial;-inkscape-font-specification:Arial;letter-spacing:0px;word-spacing:0px;fill:#ff0000;stroke:#ffffff;stroke-width:0.529167;stroke-linecap:square;paint-order:markers stroke fill"
       inkscape:label="L2"
       aria-label="⚫" /><path
       d="m 72.214375,152.95258 q 0,0.41083 -0.105937,0.79065 -0.105937,0.37982 -0.299724,0.71055 -0.193786,0.32815 -0.465088,0.59945 -0.271301,0.2713 -0.602031,0.46509 -0.328145,0.19378 -0.707967,0.29972 -0.379822,0.10594 -0.79065,0.10594 -0.410828,0 -0.79065,-0.10594 -0.379822,-0.10594 -0.710551,-0.29972 -0.328146,-0.19379 -0.599447,-0.46509 -0.271302,-0.2713 -0.465088,-0.59945 -0.193787,-0.33073 -0.299724,-0.71055 -0.105937,-0.37982 -0.105937,-0.79065 0,-0.41083 0.105937,-0.79065 0.105937,-0.37982 0.299724,-0.70797 0.193786,-0.33073 0.465088,-0.60203 0.271301,-0.2713 0.599447,-0.46509 0.330729,-0.19378 0.710551,-0.29972 0.379822,-0.10594 0.79065,-0.10594 0.410828,0 0.79065,0.10594 0.379822,0.10594 0.707967,0.29972 0.33073,0.19379 0.602031,0.46509 0.271302,0.2713 0.465088,0.60203 0.193787,0.32815 0.299724,0.70797 0.105937,0.37982 0.105937,0.79065 z"
       id="L3"
       style="font-size:5.29167px;line-height:0.86;font-family:Arial;-inkscape-font-specification:Arial;letter-spacing:0px;word-spacing:0px;fill:#ff0000;stroke:#ffffff;stroke-width:0.529167;stroke-linecap:square;paint-order:markers stroke fill"
       inkscape:label="L3"
       aria-label="⚫" /><path
       d="m 98.032612,82.607243 q 0,0.410828 -0.105937,0.79065 -0.105937,0.379822 -0.299723,0.710551 -0.193787,0.328146 -0.465088,0.599447 -0.271302,0.271301 -0.602031,0.465088 -0.328146,0.193787 -0.707968,0.299724 -0.379822,0.105936 -0.79065,0.105936 -0.410828,0 -0.79065,-0.105936 -0.379822,-0.105937 -0.710551,-0.299724 -0.328145,-0.193787 -0.599447,-0.465088 -0.271301,-0.271301 -0.465088,-0.599447 -0.193787,-0.330729 -0.299724,-0.710551 -0.105936,-0.379822 -0.105936,-0.79065 0,-0.410828 0.105936,-0.79065 0.105937,-0.379822 0.299724,-0.707968 0.193787,-0.330729 0.465088,-0.60203 0.271302,-0.271302 0.599447,-0.465089 0.330729,-0.193786 0.710551,-0.299723 0.379822,-0.105937 0.79065,-0.105937 0.410828,0 0.79065,0.105937 0.379822,0.105937 0.707968,0.299723 0.330729,0.193787 0.602031,0.465089 0.271301,0.271301 0.465088,0.60203 0.193786,0.328146 0.299723,0.707968 0.105937,0.379822 0.105937,0.79065 z"
       id="L4"
       style="font-size:5.29167px;line-height:0.86;font-family:Arial;-inkscape-font-specification:Arial;letter-spacing:0px;word-spacing:0px;fill:#ff0000;stroke-width:0.529167;stroke-linecap:square;paint-order:markers stroke fill"
       inkscape:label="L4"
       aria-label="⚫" /><path
       d="m -32.720344,75.894071 q 0.410828,0 0.79065,0.105936 0.379822,0.105937 0.707968,0.299724 0.330729,0.193787 0.602031,0.465088 0.271301,0.271301 0.465088,0.602031 0.193787,0.328145 0.299723,0.707967 0.105937,0.379822 0.105937,0.79065 0,0.410828 -0.105937,0.79065 -0.105936,0.379822 -0.299723,0.710551 -0.193787,0.328146 -0.465088,0.599447 -0.271302,0.271302 -0.602031,0.465089 -0.328146,0.193786 -0.707968,0.299723 -0.379822,0.105937 -0.79065,0.105937 -0.410828,0 -0.79065,-0.105937 -0.379822,-0.105937 -0.710551,-0.299723 -0.328145,-0.193787 -0.599447,-0.465089 -0.271301,-0.271301 -0.465088,-0.599447 -0.193787,-0.330729 -0.299724,-0.710551 -0.105936,-0.379822 -0.105936,-0.79065 0,-0.410828 0.105936,-0.79065 0.105937,-0.379822 0.299724,-0.707967 0.193787,-0.33073 0.465088,-0.602031 0.271302,-0.271301 0.599447,-0.465088 0.330729,-0.193787 0.710551,-0.299724 0.379822,-0.105936 0.79065,-0.105936 z m 1.568381,0.896586 -3.643191,3.643191 q 0.02842,0.03876 0.05943,0.07752 0.03101,0.03617 0.06201,0.07235 l 3.669029,-3.671613 q -0.03617,-0.03101 -0.07493,-0.06201 -0.03617,-0.03101 -0.07235,-0.05943 z m 0.38499,0.359152 -3.669029,3.669029 0.07235,0.06201 q 0.03617,0.03101 0.07493,0.05943 l 3.64319,-3.64319 q -0.02842,-0.03617 -0.05943,-0.07235 -0.03101,-0.03876 -0.06201,-0.07493 z m -0.847494,-0.638205 -3.45974,3.45974 q 0.04134,0.09043 0.09302,0.178283 l 3.542422,-3.545005 q -0.04393,-0.02584 -0.08785,-0.04909 -0.04392,-0.02325 -0.08785,-0.04393 z m 1.154969,1.072287 -3.542422,3.542421 q 0.04393,0.02584 0.08785,0.04909 0.04393,0.02326 0.08785,0.04393 l 3.459739,-3.457155 q -0.04392,-0.09302 -0.09302,-0.178284 z m -1.710491,-1.260906 -3.092837,3.092837 q 0.01292,0.05426 0.02584,0.10852 0.0155,0.05426 0.03101,0.105937 l 3.25045,-3.25045 q -0.05426,-0.0155 -0.108521,-0.02842 -0.05168,-0.0155 -0.105936,-0.02842 z m 1.935283,1.777671 -3.250449,3.250449 q 0.05168,0.0155 0.105936,0.02842 0.05426,0.0155 0.108521,0.02842 l 3.092836,-3.092836 q -0.01292,-0.05426 -0.02842,-0.105937 -0.01292,-0.05426 -0.02842,-0.10852 z m -5.084964,0.695048 v 0.136943 q 0,0.03101 0.0026,0.06459 l 2.728517,-2.728517 q -0.03359,-0.0026 -0.06718,-0.0026 h -0.134359 q -0.03359,0 -0.06976,0.0026 l -2.457216,2.457216 q -0.0026,0.03617 -0.0026,0.06976 z m 2.738853,2.666506 2.457216,-2.457216 q 0.0026,-0.03617 0.0026,-0.06976 v -0.134358 q 0,-0.03359 -0.0026,-0.06718 l -2.728518,2.728518 q 0.03359,0.0026 0.0646,0.0026 h 0.136943 q 0.03359,0 0.06976,-0.0026 z m -0.84491,-5.100467 q -0.02584,0.0078 -0.09302,0.031 -0.0646,0.02067 -0.136943,0.04651 -0.07235,0.02584 -0.134358,0.05168 -0.05943,0.02584 -0.07235,0.03876 l -1.193727,1.193726 q -0.01292,0.01292 -0.03876,0.07493 -0.02584,0.05943 -0.05168,0.134359 -0.02584,0.07235 -0.04909,0.139527 -0.02067,0.0646 -0.02842,0.09043 z m 1.410767,5.007449 q 0.0155,-0.0052 0.05168,-0.01809 0.03617,-0.01033 0.08268,-0.02584 0.04651,-0.0155 0.0956,-0.03359 0.04909,-0.01809 0.09302,-0.03617 0.04392,-0.0155 0.07493,-0.03101 0.03101,-0.01292 0.03876,-0.02067 l 1.193727,-1.19631 q 0.01292,-0.01292 0.03876,-0.07235 0.02584,-0.06201 0.05168,-0.134359 0.02584,-0.07235 0.04651,-0.136942 0.02325,-0.06718 0.03101,-0.09302 z m 3.782717,-2.539898 v -1.431438 q -0.26355,0.209289 -0.578776,0.291972 v -0.317811 q 0.160197,-0.05168 0.356568,-0.188619 0.19637,-0.136942 0.31781,-0.294555 h 0.279053 v 1.940451 z"
       id="L5pia"
       style="font-size:5.29167px;line-height:0.86;font-family:Arial;-inkscape-font-specification:Arial;letter-spacing:0px;word-spacing:0px;fill:#ff0000;stroke:#ffffff;stroke-width:0.529167;stroke-linecap:square;paint-order:markers stroke fill"
       inkscape:label="L5pia"
       aria-label="🔴¹" /><path
       d="m 15.193159,220.91989 q 0.410828,0 0.79065,0.10594 0.379822,0.10593 0.707967,0.29972 0.33073,0.19379 0.602031,0.46509 0.271302,0.2713 0.465088,0.60203 0.193787,0.32814 0.299724,0.70797 0.105937,0.37982 0.105937,0.79065 0,0.41082 -0.105937,0.79064 -0.105937,0.37983 -0.299724,0.71056 -0.193786,0.32814 -0.465088,0.59944 -0.271301,0.2713 -0.602031,0.46509 -0.328145,0.19379 -0.707967,0.29972 -0.379822,0.10594 -0.79065,0.10594 -0.410828,0 -0.79065,-0.10594 -0.379822,-0.10593 -0.710551,-0.29972 -0.328146,-0.19379 -0.599447,-0.46509 -0.271302,-0.2713 -0.465088,-0.59944 -0.193787,-0.33073 -0.299724,-0.71056 -0.105937,-0.37982 -0.105937,-0.79064 0,-0.41083 0.105937,-0.79065 0.105937,-0.37983 0.299724,-0.70797 0.193786,-0.33073 0.465088,-0.60203 0.271301,-0.2713 0.599447,-0.46509 0.330729,-0.19379 0.710551,-0.29972 0.379822,-0.10594 0.79065,-0.10594 z m 1.568381,0.89659 -3.643191,3.64319 q 0.02842,0.0388 0.05943,0.0775 0.03101,0.0362 0.06201,0.0724 l 3.669029,-3.67162 q -0.03617,-0.031 -0.07493,-0.062 -0.03617,-0.031 -0.07235,-0.0594 z m 0.384989,0.35915 -3.669029,3.66903 0.07235,0.062 q 0.03617,0.031 0.07493,0.0594 l 3.643191,-3.6432 q -0.02842,-0.0362 -0.05943,-0.0723 -0.03101,-0.0388 -0.06201,-0.0749 z m -0.847494,-0.63821 -3.459739,3.45974 q 0.04134,0.0904 0.09302,0.17829 l 3.542421,-3.54501 q -0.04392,-0.0258 -0.08785,-0.0491 -0.04392,-0.0233 -0.08785,-0.0439 z m 1.154969,1.07229 -3.542421,3.54242 q 0.04392,0.0258 0.08785,0.0491 0.04392,0.0233 0.08785,0.0439 l 3.459739,-3.45716 q -0.04392,-0.093 -0.09302,-0.17828 z m -1.710491,-1.26091 -3.092836,3.09284 q 0.01292,0.0543 0.02584,0.10852 0.0155,0.0543 0.03101,0.10594 l 3.25045,-3.25045 q -0.05426,-0.0155 -0.108521,-0.0284 -0.05168,-0.0155 -0.105937,-0.0284 z m 1.935284,1.77767 -3.25045,3.25045 q 0.05168,0.0155 0.105937,0.0284 0.05426,0.0155 0.108521,0.0284 l 3.092836,-3.09284 q -0.01292,-0.0543 -0.02842,-0.10594 -0.01292,-0.0543 -0.02842,-0.10852 z m -5.084964,0.69505 v 0.13694 q 0,0.031 0.0026,0.0646 l 2.728517,-2.72852 q -0.03359,-0.003 -0.06718,-0.003 h -0.134359 q -0.03359,0 -0.06976,0.003 l -2.457216,2.45722 q -0.0026,0.0362 -0.0026,0.0698 z m 2.738853,2.66651 2.457215,-2.45722 q 0.0026,-0.0362 0.0026,-0.0698 v -0.13436 q 0,-0.0336 -0.0026,-0.0672 l -2.728517,2.72852 q 0.03359,0.003 0.0646,0.003 h 0.136942 q 0.03359,0 0.06976,-0.003 z m -0.844911,-5.10047 q -0.02584,0.008 -0.09302,0.031 -0.0646,0.0207 -0.136943,0.0465 -0.07235,0.0258 -0.134359,0.0517 -0.05943,0.0258 -0.07235,0.0388 l -1.193726,1.19373 q -0.01292,0.0129 -0.03876,0.0749 -0.02584,0.0594 -0.05168,0.13435 -0.02584,0.0724 -0.04909,0.13953 -0.02067,0.0646 -0.02842,0.0904 z m 1.410768,5.00745 q 0.0155,-0.005 0.05168,-0.0181 0.03617,-0.0103 0.08268,-0.0258 0.04651,-0.0155 0.0956,-0.0336 0.04909,-0.0181 0.09302,-0.0362 0.04393,-0.0155 0.07493,-0.031 0.03101,-0.0129 0.03876,-0.0207 l 1.193726,-1.19632 q 0.01292,-0.0129 0.03876,-0.0723 0.02584,-0.062 0.05168,-0.13436 0.02584,-0.0724 0.04651,-0.13694 0.02325,-0.0672 0.03101,-0.093 z"
       id="L6pi"
       style="font-size:5.29167px;line-height:0.86;font-family:Arial;-inkscape-font-specification:Arial;letter-spacing:0px;word-spacing:0px;fill:#ff0000;stroke:#ffffff;stroke-width:0.529167;stroke-linecap:square;paint-order:markers stroke fill"
       inkscape:label="L6pi"
       aria-label="🔴" /><path
       d="m 75.782742,103.4449 q 0.410828,0 0.79065,0.10593 0.379822,0.10594 0.707968,0.29973 0.330729,0.19378 0.602031,0.46509 0.271301,0.2713 0.465088,0.60203 0.193787,0.32814 0.299723,0.70796 0.105937,0.37983 0.105937,0.79065 0,0.41083 -0.105937,0.79065 -0.105936,0.37983 -0.299723,0.71056 -0.193787,0.32814 -0.465088,0.59944 -0.271302,0.2713 -0.602031,0.46509 -0.328146,0.19379 -0.707968,0.29972 -0.379822,0.10594 -0.79065,0.10594 -0.410827,0 -0.790649,-0.10594 -0.379822,-0.10593 -0.710552,-0.29972 -0.328145,-0.19379 -0.599447,-0.46509 -0.271301,-0.2713 -0.465088,-0.59944 -0.193787,-0.33073 -0.299723,-0.71056 -0.105937,-0.37982 -0.105937,-0.79065 0,-0.41082 0.105937,-0.79065 0.105936,-0.37982 0.299723,-0.70796 0.193787,-0.33073 0.465088,-0.60203 0.271302,-0.27131 0.599447,-0.46509 0.33073,-0.19379 0.710552,-0.29973 0.379822,-0.10593 0.790649,-0.10593 z m 1.568381,0.89658 -3.643191,3.64319 q 0.02842,0.0388 0.05943,0.0775 0.03101,0.0362 0.06201,0.0724 l 3.669029,-3.67162 q -0.03617,-0.031 -0.07493,-0.062 -0.03617,-0.031 -0.07235,-0.0594 z m 0.38499,0.35916 -3.669029,3.66902 0.07235,0.062 q 0.03617,0.031 0.07493,0.0594 l 3.64319,-3.64319 q -0.02842,-0.0362 -0.05943,-0.0723 -0.03101,-0.0388 -0.06201,-0.0749 z m -0.847494,-0.63821 -3.459739,3.45974 q 0.04134,0.0904 0.09302,0.17828 l 3.542422,-3.545 q -0.04393,-0.0258 -0.08785,-0.0491 -0.04393,-0.0233 -0.08785,-0.0439 z m 1.154969,1.07229 -3.542422,3.54242 q 0.04393,0.0258 0.08785,0.0491 0.04393,0.0233 0.08785,0.0439 l 3.459739,-3.45716 q -0.04393,-0.093 -0.09302,-0.17828 z m -1.710491,-1.26091 -3.092837,3.09284 q 0.01292,0.0543 0.02584,0.10852 0.0155,0.0543 0.03101,0.10594 l 3.250449,-3.25045 q -0.05426,-0.0155 -0.10852,-0.0284 -0.05168,-0.0155 -0.105937,-0.0284 z m 1.935283,1.77767 -3.250449,3.25045 q 0.05168,0.0155 0.105937,0.0284 0.05426,0.0155 0.10852,0.0284 l 3.092836,-3.09284 q -0.01292,-0.0543 -0.02842,-0.10594 -0.01292,-0.0543 -0.02842,-0.10852 z m -5.084964,0.69505 v 0.13694 q 0,0.031 0.0026,0.0646 l 2.728517,-2.72852 q -0.03359,-0.003 -0.06718,-0.003 h -0.134359 q -0.03359,0 -0.06976,0.003 L 73.186,106.27677 q -0.0026,0.0362 -0.0026,0.0698 z m 2.738853,2.66651 2.457216,-2.45722 q 0.0026,-0.0362 0.0026,-0.0698 v -0.13436 q 0,-0.0336 -0.0026,-0.0672 l -2.728518,2.72852 q 0.03359,0.003 0.0646,0.003 h 0.136943 q 0.03359,0 0.06976,-0.003 z m -0.84491,-5.10047 q -0.02584,0.008 -0.09302,0.031 -0.06459,0.0207 -0.136943,0.0465 -0.07235,0.0258 -0.134358,0.0517 -0.05943,0.0258 -0.07235,0.0388 l -1.193727,1.19372 q -0.01292,0.0129 -0.03876,0.0749 -0.02584,0.0594 -0.05168,0.13435 -0.02584,0.0724 -0.04909,0.13953 -0.02067,0.0646 -0.02842,0.0904 z m 1.410767,5.00745 q 0.0155,-0.005 0.05168,-0.0181 0.03617,-0.0103 0.08268,-0.0258 0.04651,-0.0155 0.0956,-0.0336 0.04909,-0.0181 0.09302,-0.0362 0.04393,-0.0155 0.07493,-0.031 0.03101,-0.0129 0.03876,-0.0207 l 1.193727,-1.19631 q 0.01292,-0.0129 0.03876,-0.0723 0.02584,-0.062 0.05168,-0.13436 0.02584,-0.0724 0.04651,-0.13694 0.02326,-0.0672 0.03101,-0.093 z"
       id="L7pi"
       style="font-size:5.29167px;line-height:0.86;font-family:Arial;-inkscape-font-specification:Arial;letter-spacing:0px;word-spacing:0px;fill:#ff0000;stroke:#ffffff;stroke-width:0.529167;stroke-linecap:square;paint-order:markers stroke fill"
       inkscape:label="L7pi"
       aria-label="🔴" /><path
       d="m 13.83437,94.06844 q 0,0.410828 -0.105936,0.79065 -0.105937,0.379822 -0.299724,0.710551 -0.193787,0.328145 -0.465088,0.599447 -0.271302,0.271301 -0.602031,0.465088 -0.328145,0.193787 -0.707967,0.299724 -0.379822,0.105936 -0.79065,0.105936 -0.410828,0 -0.79065,-0.105936 Q 9.6925018,96.827963 9.3617724,96.634176 9.0336268,96.440389 8.7623254,96.169088 8.491024,95.897786 8.2972372,95.569641 8.1034505,95.238912 7.9975138,94.85909 7.891577,94.479268 7.891577,94.06844 q 0,-0.410828 0.1059368,-0.79065 0.1059367,-0.379822 0.2997234,-0.707968 0.1937868,-0.330729 0.4650882,-0.602031 0.2713014,-0.271301 0.599447,-0.465088 0.3307294,-0.193787 0.7105516,-0.299723 0.379822,-0.105937 0.79065,-0.105937 0.410828,0 0.79065,0.105937 0.379822,0.105936 0.707967,0.299723 0.330729,0.193787 0.602031,0.465088 0.271301,0.271302 0.465088,0.602031 0.193787,0.328146 0.299724,0.707968 0.105936,0.379822 0.105936,0.79065 z"
       id="B1"
       style="font-size:5.29167px;line-height:0.86;font-family:Arial;-inkscape-font-specification:Arial;letter-spacing:0px;word-spacing:0px;fill:#ff8000;stroke-width:0.529167;stroke-linecap:square;paint-order:markers stroke fill"
       inkscape:label="B1"
       aria-label="⚫" /><path
       d="m -43.227672,133.35706 q 0,0.41083 -0.105937,0.79065 -0.105937,0.37982 -0.299724,0.71055 -0.193786,0.32815 -0.465088,0.59945 -0.271301,0.2713 -0.602031,0.46509 -0.328145,0.19378 -0.707967,0.29972 -0.379822,0.10594 -0.79065,0.10594 -0.410828,0 -0.79065,-0.10594 -0.379822,-0.10594 -0.710551,-0.29972 -0.328146,-0.19379 -0.599447,-0.46509 -0.271302,-0.2713 -0.465088,-0.59945 -0.193787,-0.33073 -0.299724,-0.71055 -0.105937,-0.37982 -0.105937,-0.79065 0,-0.41083 0.105937,-0.79065 0.105937,-0.37982 0.299724,-0.70797 0.193786,-0.33073 0.465088,-0.60203 0.271301,-0.2713 0.599447,-0.46509 0.330729,-0.19378 0.710551,-0.29972 0.379822,-0.10594 0.79065,-0.10594 0.410828,0 0.79065,0.10594 0.379822,0.10594 0.707967,0.29972 0.33073,0.19379 0.602031,0.46509 0.271302,0.2713 0.465088,0.60203 0.193787,0.32815 0.299724,0.70797 0.105937,0.37982 0.105937,0.79065 z"
       id="B2"
       style="font-size:5.29167px;line-height:0.86;font-family:Arial;-inkscape-font-specification:Arial;letter-spacing:0px;word-spacing:0px;fill:#ff8000;stroke-width:0.529167;stroke-linecap:square;paint-order:markers stroke fill"
       inkscape:label="B2"
       aria-label="⚫" /><path
       d="m 6.3508247,159.54947 q 0,0.41083 -0.1059367,0.79065 -0.1059368,0.37982 -0.2997235,0.71055 -0.1937868,0.32815 -0.4650882,0.59945 -0.2713014,0.2713 -0.6020308,0.46509 -0.3281455,0.19379 -0.7079675,0.29972 -0.379822,0.10594 -0.7906499,0.10594 -0.4108279,0 -0.7906499,-0.10594 -0.379822,-0.10593 -0.7105514,-0.29972 -0.3281455,-0.19379 -0.599447,-0.46509 -0.2713014,-0.2713 -0.46508813,-0.59945 -0.19378674,-0.33073 -0.29972349,-0.71055 -0.10593675,-0.37982 -0.10593675,-0.79065 0,-0.41082 0.10593675,-0.79065 0.10593675,-0.37982 0.29972349,-0.70796 0.19378673,-0.33073 0.46508813,-0.60204 0.2713015,-0.2713 0.599447,-0.46508 0.3307294,-0.19379 0.7105514,-0.29973 0.379822,-0.10593 0.7906499,-0.10593 0.4108279,0 0.7906499,0.10593 0.379822,0.10594 0.7079675,0.29973 0.3307294,0.19378 0.6020308,0.46508 0.2713014,0.27131 0.4650882,0.60204 0.1937867,0.32814 0.2997235,0.70796 0.1059367,0.37983 0.1059367,0.79065 z"
       id="B3i"
       style="font-size:5.29167px;line-height:0.86;font-family:Arial;-inkscape-font-specification:Arial;letter-spacing:0px;word-spacing:0px;fill:#ff8000;stroke:#ffffff;stroke-width:0.529167;stroke-linecap:square;paint-order:markers stroke fill"
       inkscape:label="B3i"
       aria-label="⚫" /><path
       d="m 47.697422,98.371479 q 0,0.410828 -0.105937,0.79065 -0.105936,0.379822 -0.299723,0.710551 -0.193787,0.32815 -0.465088,0.59945 -0.271302,0.2713 -0.602031,0.46509 -0.328146,0.19378 -0.707968,0.29972 -0.379822,0.10594 -0.790649,0.10594 -0.410828,0 -0.79065,-0.10594 -0.379822,-0.10594 -0.710552,-0.29972 -0.328145,-0.19379 -0.599447,-0.46509 -0.271301,-0.2713 -0.465088,-0.59945 -0.193787,-0.330729 -0.299723,-0.710551 -0.105937,-0.379822 -0.105937,-0.79065 0,-0.410828 0.105937,-0.79065 0.105936,-0.379822 0.299723,-0.707967 0.193787,-0.33073 0.465088,-0.602031 0.271302,-0.271301 0.599447,-0.465088 0.33073,-0.193787 0.710552,-0.299724 0.379822,-0.105936 0.79065,-0.105936 0.410827,0 0.790649,0.105936 0.379822,0.105937 0.707968,0.299724 0.330729,0.193787 0.602031,0.465088 0.271301,0.271301 0.465088,0.602031 0.193787,0.328145 0.299723,0.707967 0.105937,0.379822 0.105937,0.79065 z"
       id="B4i"
       style="font-size:5.29167px;line-height:0.86;font-family:Arial;-inkscape-font-specification:Arial;letter-spacing:0px;word-spacing:0px;fill:#ff8000;stroke:#ffffff;stroke-width:0.529167;stroke-linecap:square;paint-order:markers stroke fill"
       inkscape:label="B4i"
       aria-label="⚫" /><path
       d="m -44.889445,114.29605 q 0.410828,0 0.79065,0.10593 0.379822,0.10594 0.707967,0.29973 0.330729,0.19379 0.602031,0.46509 0.271301,0.2713 0.465088,0.60203 0.193787,0.32814 0.299724,0.70796 0.105936,0.37983 0.105936,0.79065 0,0.41083 -0.105936,0.79065 -0.105937,0.37983 -0.299724,0.71056 -0.193787,0.32814 -0.465088,0.59944 -0.271302,0.2713 -0.602031,0.46509 -0.328145,0.19379 -0.707967,0.29972 -0.379822,0.10594 -0.79065,0.10594 -0.410828,0 -0.79065,-0.10594 -0.379822,-0.10593 -0.710552,-0.29972 -0.328145,-0.19379 -0.599447,-0.46509 -0.271301,-0.2713 -0.465088,-0.59944 -0.193786,-0.33073 -0.299723,-0.71056 -0.105937,-0.37982 -0.105937,-0.79065 0,-0.41082 0.105937,-0.79065 0.105937,-0.37982 0.299723,-0.70796 0.193787,-0.33073 0.465088,-0.60203 0.271302,-0.2713 0.599447,-0.46509 0.33073,-0.19379 0.710552,-0.29973 0.379822,-0.10593 0.79065,-0.10593 z m 1.56838,0.89658 -3.64319,3.6432 q 0.02842,0.0387 0.05943,0.0775 0.03101,0.0362 0.06201,0.0724 l 3.669029,-3.67162 q -0.03617,-0.031 -0.07493,-0.062 -0.03617,-0.031 -0.07235,-0.0594 z m 0.38499,0.35916 -3.669029,3.66903 0.07235,0.062 q 0.03617,0.031 0.07493,0.0594 l 3.643191,-3.64319 q -0.02842,-0.0362 -0.05943,-0.0723 -0.03101,-0.0388 -0.06201,-0.0749 z m -0.847494,-0.63821 -3.459739,3.45974 q 0.04134,0.0904 0.09302,0.17828 l 3.542422,-3.545 q -0.04393,-0.0258 -0.08785,-0.0491 -0.04393,-0.0233 -0.08785,-0.0439 z m 1.154969,1.07229 -3.542422,3.54242 q 0.04393,0.0258 0.08785,0.0491 0.04392,0.0233 0.08785,0.0439 l 3.45974,-3.45716 q -0.04393,-0.093 -0.09302,-0.17828 z m -1.710491,-1.26091 -3.092836,3.09284 q 0.01292,0.0543 0.02584,0.10852 0.0155,0.0543 0.03101,0.10594 l 3.250449,-3.25045 q -0.05426,-0.0155 -0.10852,-0.0284 -0.05168,-0.0155 -0.105937,-0.0284 z m 1.935284,1.77767 -3.25045,3.25045 q 0.05168,0.0155 0.105937,0.0284 0.05426,0.0155 0.10852,0.0284 l 3.092837,-3.09284 q -0.01292,-0.0543 -0.02842,-0.10594 -0.01292,-0.0543 -0.02842,-0.10852 z m -5.084964,0.69505 v 0.13694 q 0,0.031 0.0026,0.0646 l 2.728518,-2.72852 q -0.03359,-0.003 -0.06718,-0.003 h -0.134359 q -0.03359,0 -0.06976,0.003 l -2.457216,2.45722 q -0.0026,0.0362 -0.0026,0.0698 z m 2.738852,2.66651 2.457216,-2.45722 q 0.0026,-0.0362 0.0026,-0.0698 v -0.13436 q 0,-0.0336 -0.0026,-0.0672 l -2.728517,2.72852 q 0.03359,0.003 0.06459,0.003 h 0.136943 q 0.03359,0 0.06976,-0.003 z m -0.84491,-5.10047 q -0.02584,0.008 -0.09302,0.031 -0.0646,0.0207 -0.136942,0.0465 -0.07235,0.0258 -0.134359,0.0517 -0.05943,0.0258 -0.07235,0.0388 l -1.193726,1.19372 q -0.01292,0.0129 -0.03876,0.0749 -0.02584,0.0594 -0.05168,0.13435 -0.02584,0.0724 -0.04909,0.13953 -0.02067,0.0646 -0.02842,0.0904 z m 1.410767,5.00745 q 0.0155,-0.005 0.05168,-0.0181 0.03617,-0.0103 0.08268,-0.0258 0.04651,-0.0155 0.0956,-0.0336 0.04909,-0.0181 0.09302,-0.0362 0.04393,-0.0155 0.07493,-0.031 0.03101,-0.0129 0.03876,-0.0207 l 1.193727,-1.19631 q 0.01292,-0.0129 0.03876,-0.0723 0.02584,-0.062 0.05168,-0.13436 0.02584,-0.0724 0.04651,-0.13694 0.02325,-0.0672 0.03101,-0.093 z"
       id="B5pi"
       style="font-size:5.29167px;line-height:0.86;font-family:Arial;-inkscape-font-specification:Arial;letter-spacing:0px;word-spacing:0px;fill:#ff8000;stroke:#ffffff;stroke-width:0.529167;stroke-linecap:square;paint-order:markers stroke fill"
       inkscape:label="B5pi"
       aria-label="🔴" /><path
       d="m 30.133113,156.57809 q 0.410828,0 0.79065,0.10594 0.379822,0.10594 0.707967,0.29972 0.33073,0.19379 0.602031,0.46509 0.271302,0.2713 0.465088,0.60203 0.193787,0.32815 0.299724,0.70797 0.105937,0.37982 0.105937,0.79065 0,0.41083 -0.105937,0.79065 -0.105937,0.37982 -0.299724,0.71055 -0.193786,0.32815 -0.465088,0.59945 -0.271301,0.2713 -0.602031,0.46508 -0.328145,0.19379 -0.707967,0.29973 -0.379822,0.10593 -0.79065,0.10593 -0.410828,0 -0.79065,-0.10593 -0.379822,-0.10594 -0.710551,-0.29973 -0.328146,-0.19378 -0.599447,-0.46508 -0.271302,-0.2713 -0.465089,-0.59945 -0.193786,-0.33073 -0.299723,-0.71055 -0.105937,-0.37982 -0.105937,-0.79065 0,-0.41083 0.105937,-0.79065 0.105937,-0.37982 0.299723,-0.70797 0.193787,-0.33073 0.465089,-0.60203 0.271301,-0.2713 0.599447,-0.46509 0.330729,-0.19378 0.710551,-0.29972 0.379822,-0.10594 0.79065,-0.10594 z m 1.568381,0.89659 -3.643191,3.64319 q 0.02842,0.0388 0.05943,0.0775 0.03101,0.0362 0.06201,0.0724 l 3.669028,-3.67161 q -0.03617,-0.031 -0.07493,-0.062 -0.03617,-0.031 -0.07235,-0.0594 z m 0.384989,0.35915 -3.669029,3.66903 0.07235,0.062 q 0.03617,0.031 0.07493,0.0594 l 3.643191,-3.64319 q -0.02842,-0.0362 -0.05943,-0.0724 -0.03101,-0.0388 -0.06201,-0.0749 z m -0.847494,-0.6382 -3.459739,3.45973 q 0.04134,0.0904 0.09302,0.17829 l 3.542421,-3.54501 q -0.04392,-0.0258 -0.08785,-0.0491 -0.04392,-0.0233 -0.08785,-0.0439 z m 1.154969,1.07228 -3.542421,3.54242 q 0.04392,0.0258 0.08785,0.0491 0.04393,0.0232 0.08785,0.0439 l 3.459739,-3.45715 q -0.04393,-0.093 -0.09302,-0.17829 z m -1.710491,-1.2609 -3.092836,3.09283 q 0.01292,0.0543 0.02584,0.10852 0.0155,0.0543 0.03101,0.10594 l 3.25045,-3.25045 q -0.05426,-0.0155 -0.108521,-0.0284 -0.05168,-0.0155 -0.105937,-0.0284 z m 1.935284,1.77767 -3.25045,3.25045 q 0.05168,0.0155 0.105937,0.0284 0.05426,0.0155 0.108521,0.0284 l 3.092836,-3.09284 q -0.01292,-0.0543 -0.02842,-0.10593 -0.01292,-0.0543 -0.02842,-0.10852 z m -5.084964,0.69504 v 0.13695 q 0,0.031 0.0026,0.0646 l 2.728517,-2.72851 q -0.03359,-0.003 -0.06718,-0.003 H 30.06335 q -0.03359,0 -0.06976,0.003 l -2.457215,2.45721 q -0.0026,0.0362 -0.0026,0.0698 z m 2.738852,2.66651 2.457216,-2.45722 q 0.0026,-0.0362 0.0026,-0.0698 v -0.13436 q 0,-0.0336 -0.0026,-0.0672 l -2.728517,2.72852 q 0.03359,0.003 0.0646,0.003 h 0.136943 q 0.03359,0 0.06976,-0.003 z m -0.84491,-5.10047 q -0.02584,0.008 -0.09302,0.031 -0.0646,0.0207 -0.136943,0.0465 -0.07235,0.0258 -0.134359,0.0517 -0.05943,0.0258 -0.07235,0.0388 l -1.193726,1.19373 q -0.01292,0.0129 -0.03876,0.0749 -0.02584,0.0594 -0.05168,0.13436 -0.02584,0.0724 -0.04909,0.13952 -0.02067,0.0646 -0.02842,0.0904 z m 1.410768,5.00745 q 0.0155,-0.005 0.05168,-0.0181 0.03617,-0.0103 0.08268,-0.0258 0.04651,-0.0155 0.0956,-0.0336 0.04909,-0.0181 0.09302,-0.0362 0.04393,-0.0155 0.07493,-0.031 0.03101,-0.0129 0.03876,-0.0207 l 1.193726,-1.19631 q 0.01292,-0.0129 0.03876,-0.0724 0.02584,-0.062 0.05168,-0.13436 0.02584,-0.0723 0.04651,-0.13694 0.02325,-0.0672 0.03101,-0.093 z"
       id="B6pi__"
       style="font-size:5.29167px;line-height:0.86;font-family:Arial;-inkscape-font-specification:Arial;letter-spacing:0px;word-spacing:0px;fill:#ff8000;stroke:#ffffff;stroke-width:0.529167;stroke-linecap:square;paint-order:markers stroke fill"
       inkscape:label="B6pi__"
       aria-label="🔴" /><path
       d="m 23.562987,159.54949 q 0,0.41083 -0.105937,0.79065 -0.105937,0.37982 -0.299724,0.71055 -0.193786,0.32815 -0.465088,0.59945 -0.271301,0.2713 -0.602031,0.46508 -0.328145,0.19379 -0.707967,0.29973 -0.379822,0.10593 -0.79065,0.10593 -0.410828,0 -0.79065,-0.10593 -0.379822,-0.10594 -0.710551,-0.29973 -0.328146,-0.19378 -0.599447,-0.46508 -0.271302,-0.2713 -0.465089,-0.59945 -0.193786,-0.33073 -0.299723,-0.71055 -0.105937,-0.37982 -0.105937,-0.79065 0,-0.41083 0.105937,-0.79065 0.105937,-0.37982 0.299723,-0.70797 0.193787,-0.33073 0.465089,-0.60203 0.271301,-0.2713 0.599447,-0.46509 0.330729,-0.19378 0.710551,-0.29972 0.379822,-0.10594 0.79065,-0.10594 0.410828,0 0.79065,0.10594 0.379822,0.10594 0.707967,0.29972 0.33073,0.19379 0.602031,0.46509 0.271302,0.2713 0.465088,0.60203 0.193787,0.32815 0.299724,0.70797 0.105937,0.37982 0.105937,0.79065 z"
       id="B9__"
       style="font-size:5.29167px;line-height:0.86;font-family:Arial;-inkscape-font-specification:Arial;letter-spacing:0px;word-spacing:0px;fill:#ff8000;stroke-width:0.529167;stroke-linecap:square;paint-order:markers stroke fill"
       inkscape:label="B9__"
       aria-label="⚫" /><path
       d="m 68.299191,134.12745 q 0.410828,0 0.79065,0.10594 0.379822,0.10594 0.707968,0.29972 0.330729,0.19379 0.602031,0.46509 0.271301,0.2713 0.465088,0.60203 0.193787,0.32815 0.299723,0.70797 0.105937,0.37982 0.105937,0.79065 0,0.41083 -0.105937,0.79065 -0.105936,0.37982 -0.299723,0.71055 -0.193787,0.32815 -0.465088,0.59945 -0.271302,0.2713 -0.602031,0.46509 -0.328146,0.19378 -0.707968,0.29972 -0.379822,0.10594 -0.79065,0.10594 -0.410827,0 -0.790649,-0.10594 -0.379822,-0.10594 -0.710552,-0.29972 -0.328145,-0.19379 -0.599447,-0.46509 -0.271301,-0.2713 -0.465088,-0.59945 -0.193787,-0.33073 -0.299723,-0.71055 -0.105937,-0.37982 -0.105937,-0.79065 0,-0.41083 0.105937,-0.79065 0.105936,-0.37982 0.299723,-0.70797 0.193787,-0.33073 0.465088,-0.60203 0.271302,-0.2713 0.599447,-0.46509 0.33073,-0.19378 0.710552,-0.29972 0.379822,-0.10594 0.790649,-0.10594 z m 0,5.57073 q 0.359152,0 0.689881,-0.093 0.333313,-0.093 0.622702,-0.26355 0.289388,-0.16795 0.524516,-0.40308 0.237711,-0.23771 0.40566,-0.5271 0.170532,-0.28939 0.26355,-0.62011 0.09302,-0.33332 0.09302,-0.69247 0,-0.35915 -0.09302,-0.68988 -0.09302,-0.33331 -0.26355,-0.6227 -0.167949,-0.28939 -0.40566,-0.52452 -0.235128,-0.23771 -0.524516,-0.40566 -0.289389,-0.17053 -0.622702,-0.26355 -0.330729,-0.093 -0.689881,-0.093 -0.359151,0 -0.692464,0.093 -0.33073,0.093 -0.620118,0.26355 -0.289388,0.16795 -0.5271,0.40566 -0.235128,0.23513 -0.40566,0.52452 -0.167948,0.28939 -0.260966,0.6227 -0.09302,0.33073 -0.09302,0.68988 0,0.35915 0.09302,0.69247 0.09302,0.33072 0.260966,0.62011 0.170532,0.28939 0.40566,0.5271 0.237712,0.23513 0.5271,0.40308 0.289388,0.17053 0.620118,0.26355 0.333313,0.093 0.692464,0.093 z"
       id="V1d"
       style="font-size:5.29167px;line-height:0.86;font-family:Arial;-inkscape-font-specification:Arial;letter-spacing:0px;word-spacing:0px;fill:#00ff7f;stroke-width:0.529167;stroke-linecap:square;paint-order:markers stroke fill"
       inkscape:label="V1d"
       aria-label="⚪" /><path
       d="m 47.323239,233.6366 q 0,0.41083 -0.105937,0.79065 -0.105937,0.37982 -0.299724,0.71055 -0.193786,0.32815 -0.465088,0.59945 -0.271301,0.2713 -0.602031,0.46509 -0.328145,0.19378 -0.707967,0.29972 -0.379822,0.10594 -0.79065,0.10594 -0.410828,0 -0.79065,-0.10594 -0.379822,-0.10594 -0.710551,-0.29972 -0.328146,-0.19379 -0.599447,-0.46509 -0.271302,-0.2713 -0.465089,-0.59945 -0.193786,-0.33073 -0.299723,-0.71055 -0.105937,-0.37982 -0.105937,-0.79065 0,-0.41083 0.105937,-0.79065 0.105937,-0.37982 0.299723,-0.70797 0.193787,-0.33073 0.465089,-0.60203 0.271301,-0.2713 0.599447,-0.46509 0.330729,-0.19378 0.710551,-0.29972 0.379822,-0.10594 0.79065,-0.10594 0.410828,0 0.79065,0.10594 0.379822,0.10594 0.707967,0.29972 0.33073,0.19379 0.602031,0.46509 0.271302,0.2713 0.465088,0.60203 0.193787,0.32815 0.299724,0.70797 0.105937,0.37982 0.105937,0.79065 z"
       id="M1"
       style="font-size:5.29167px;line-height:0.86;font-family:Arial;-inkscape-font-specification:Arial;letter-spacing:0px;word-spacing:0px;fill:#00ffff;stroke-width:0.529167;stroke-linecap:square;paint-order:markers stroke fill"
       inkscape:label="M1"
       aria-label="⚫" /></g><g
     id="f0Patrols"
     inkscape:label="f0Patrols"
     transform="translate(64.59792,-45.765892)"><circle
       style="display:inline;fill:#ff8000;fill-opacity:1;fill-rule:nonzero;stroke:none;stroke-width:1.5875;stroke-linecap:butt;stroke-linejoin:miter;stroke-dasharray:none;stroke-dashoffset:0;stroke-opacity:1;paint-order:markers stroke fill"
       id="B5c"
       cx="-46.209377"
       cy="116.27736"
       r="1.3229167"
       inkscape:label="B5c"
       sodipodi:insensitive="true" /><circle
       style="display:inline;fill:#ff8000;fill-opacity:1;fill-rule:nonzero;stroke:none;stroke-width:1.5875;stroke-linecap:butt;stroke-linejoin:miter;stroke-dasharray:none;stroke-dashoffset:0;stroke-opacity:1;paint-order:markers stroke fill"
       id="B5b"
       cx="-51.501045"
       cy="71.298187"
       r="1.3229167"
       inkscape:label="B5b"
       sodipodi:insensitive="true" /><circle
       style="display:inline;fill:#ff8000;fill-opacity:1;fill-rule:nonzero;stroke:none;stroke-width:1.5875;stroke-linecap:butt;stroke-linejoin:miter;stroke-dasharray:none;stroke-dashoffset:0;stroke-opacity:1;paint-order:markers stroke fill"
       id="B5a"
       cx="-51.501045"
       cy="158.61069"
       r="1.3229167"
       inkscape:label="B5a"
       sodipodi:insensitive="true" /><path
       style="fill:none;fill-opacity:1;fill-rule:nonzero;stroke:#ff8000;stroke-width:1.5875;stroke-linecap:butt;stroke-linejoin:miter;stroke-dasharray:none;stroke-dashoffset:0;stroke-opacity:1;paint-order:markers stroke fill"
       d="m -51.501046,158.61069 v -42.33333 h 44.9791692 l -1.6e-6,-44.979174 H -51.501046"
       id="B5"
       inkscape:label="B5"
       sodipodi:nodetypes="ccccc"
       sodipodi:insensitive="true" /><circle
       style="display:inline;fill:#ff0000;fill-opacity:1;fill-rule:nonzero;stroke:none;stroke-width:0.793749;stroke-linecap:butt;stroke-linejoin:miter;stroke-dasharray:none;stroke-dashoffset:0;stroke-opacity:1;paint-order:markers stroke fill"
       id="L7c"
       cx="70.207298"
       cy="158.6107"
       r="1.3229156"
       inkscape:label="L7c"
       sodipodi:insensitive="true" /><circle
       style="display:inline;fill:#ff0000;fill-opacity:1;fill-rule:nonzero;stroke:none;stroke-width:0.793749;stroke-linecap:butt;stroke-linejoin:miter;stroke-dasharray:none;stroke-dashoffset:0;stroke-opacity:1;paint-order:markers stroke fill"
       id="L7b"
       cx="75.498962"
       cy="104.37111"
       r="1.3229156"
       inkscape:label="L7b"
       sodipodi:insensitive="true" /><circle
       style="display:inline;fill:#ff0000;fill-opacity:1;fill-rule:nonzero;stroke:none;stroke-width:0.793749;stroke-linecap:butt;stroke-linejoin:miter;stroke-dasharray:none;stroke-dashoffset:0;stroke-opacity:1;paint-order:markers stroke fill"
       id="L7a"
       cx="-35.626045"
       cy="118.92319"
       r="1.3229156"
       inkscape:label="L7a"
       sodipodi:insensitive="true" /><path
       style="display:inline;fill:none;fill-opacity:1;fill-rule:nonzero;stroke:#ff0000;stroke-width:1.5875;stroke-linecap:butt;stroke-linejoin:miter;stroke-dasharray:none;stroke-dashoffset:0;stroke-opacity:1;paint-order:markers stroke fill"
       d="M 240.59896,140.35444 H 259.1198 V 86.114855 h -21.16667 v 14.552085 0 H 134.76562"
       id="L7"
       sodipodi:nodetypes="ccccccc"
       inkscape:label="L7"
       transform="translate(-170.39167,18.25625)"
       sodipodi:insensitive="true" /><circle
       style="display:inline;fill:#ff0000;fill-opacity:1;fill-rule:nonzero;stroke:none;stroke-width:0.793749;stroke-linecap:butt;stroke-linejoin:miter;stroke-dasharray:none;stroke-dashoffset:0;stroke-opacity:1;paint-order:markers stroke fill"
       id="L6c"
       cx="45.071877"
       cy="244.60028"
       r="1.3229156"
       inkscape:label="L6c"
       sodipodi:insensitive="true" /><circle
       style="display:inline;fill:#ff0000;fill-opacity:1;fill-rule:nonzero;stroke:none;stroke-width:0.793749;stroke-linecap:butt;stroke-linejoin:miter;stroke-dasharray:none;stroke-dashoffset:0;stroke-opacity:1;paint-order:markers stroke fill"
       id="L6b"
       cx="15.967707"
       cy="223.43361"
       r="1.3229156"
       inkscape:label="L6b"
       sodipodi:insensitive="true" /><circle
       style="display:inline;fill:#ff0000;fill-opacity:1;fill-rule:nonzero;stroke:none;stroke-width:0.793749;stroke-linecap:butt;stroke-linejoin:miter;stroke-dasharray:none;stroke-dashoffset:0;stroke-opacity:1;paint-order:markers stroke fill"
       id="L6a"
       cx="38.457291"
       cy="114.95444"
       r="1.3229156"
       inkscape:label="L6a"
       sodipodi:insensitive="true" /><path
       style="fill:none;fill-opacity:1;fill-rule:nonzero;stroke:#ff0000;stroke-width:1.5875;stroke-linecap:butt;stroke-linejoin:miter;stroke-dasharray:none;stroke-dashoffset:0;stroke-opacity:1;paint-order:markers stroke fill"
       d="M 38.45729,114.95444 H 62.269793 V 96.433605 H 92.696878 V 162.57944 H 68.884376 v 46.30209 H 15.967707 v 35.71875 h 29.104169"
       id="L6"
       inkscape:label="L6"
       sodipodi:insensitive="true" /><circle
       style="display:inline;fill:#ff0000;fill-opacity:1;fill-rule:nonzero;stroke:none;stroke-width:0.793749;stroke-linecap:butt;stroke-linejoin:miter;stroke-dasharray:none;stroke-dashoffset:0;stroke-opacity:1;paint-order:markers stroke fill"
       id="L5c"
       cx="-59.438545"
       cy="161.25653"
       r="1.3229156"
       inkscape:label="L5c"
       sodipodi:insensitive="true" /><circle
       style="display:inline;fill:#ff0000;fill-opacity:1;fill-rule:nonzero;stroke:none;stroke-width:0.793749;stroke-linecap:butt;stroke-linejoin:miter;stroke-dasharray:none;stroke-dashoffset:0;stroke-opacity:1;paint-order:markers stroke fill"
       id="L5b"
       cx="-24.513544"
       cy="80.558601"
       r="1.3229156"
       inkscape:label="L5b"
       sodipodi:insensitive="true" /><circle
       style="display:inline;fill:#ff0000;fill-opacity:1;fill-rule:nonzero;stroke:none;stroke-width:0.793749;stroke-linecap:butt;stroke-linejoin:miter;stroke-dasharray:none;stroke-dashoffset:0;stroke-opacity:1;paint-order:markers stroke fill"
       id="L5a"
       cx="-32.980213"
       cy="80.558601"
       r="1.3229156"
       inkscape:label="L5a"
       sodipodi:insensitive="true" /><path
       style="display:inline;fill:none;fill-opacity:1;fill-rule:nonzero;stroke:#ff0000;stroke-width:1.5875;stroke-linecap:butt;stroke-linejoin:miter;stroke-dasharray:none;stroke-dashoffset:0;stroke-opacity:1;paint-order:markers stroke fill"
       d="m 137.41146,62.302353 h 22.48958 v 33.072918 h -29.10416 v 47.625009 h -19.84375"
       id="L5"
       inkscape:label="L5"
       transform="translate(-170.39167,18.25625)"
       sodipodi:insensitive="true" /></g><g
     id="f1Structure"
     inkscape:label="f1Structure"><rect
       style="fill:#000000;fill-opacity:0.75;fill-rule:nonzero;stroke:none;stroke-width:0.529167;stroke-linecap:square;stroke-linejoin:miter;stroke-dasharray:none;stroke-dashoffset:0;stroke-opacity:1;paint-order:markers stroke fill"
       id="rect13"
       width="166.4229"
       height="221.19167"
       x="-1.2788086e-06"
       y="-9.7119141e-07"
       inkscape:label="BG" /><g
       id="g14"
       inkscape:label="Walls"
       style="fill:none;stroke:#ffffff;stroke-opacity:1"
       transform="translate(64.597922,-45.765893)"><path
         style="fill:none;fill-opacity:1;stroke:#ffffff;stroke-width:0.264583;stroke-linecap:square;stroke-linejoin:miter;stroke-dasharray:none;stroke-opacity:1;paint-order:markers stroke fill"
         d="M -64.465631,167.34194 V 64.948185 H 37.92812 v -4.233333 h 1.5875 v 5.820833 H 12.263537 v 46.302085 h 16.66875 v 1.5875 H 5.9135374 v -1.5875 H 10.676037 V 66.535685 H -16.576046 V 87.43777 h 9.5250002 v 25.4 h 5.0270833 v 1.5875 H -23.719798 v -1.5875 h 5.556252 v -4.7625 h 1.5875 v 4.7625 h 7.9375003 v -22.225 h -7.9375003 v 9.525 h -1.5875 V 66.535685 h -44.714585 v 46.302085 h 31.220833 v 1.5875 h -3.96875 v 16.13958 h 3.96875 v 1.5875 h -5.55625 v -17.72708 h -25.664583 v 51.32917 h 62.44166849 v -2.38125 H 1.1510375 v 2.38125 H 11.469787 V 145.64611 H 1.1510375 v 9.52499 H -0.43646251 V 132.15235 H -23.719798 v -1.5875 h 52.652085 v 21.43125 h -1.5875 v -18.25625"
         id="path13"
         inkscape:label="West" /><path
         style="fill:none;fill-opacity:1;stroke:#ffffff;stroke-width:0.264583;stroke-linecap:square;stroke-linejoin:miter;stroke-dasharray:none;stroke-opacity:1;paint-order:markers stroke fill"
         d="m 13.057287,133.73985 v 32.01459 H 43.48437 v 3.175 h 11.90625 l 2.645833,2.64583 v 5.29167 h 26.722919 v -5.29167 l 2.645834,-2.64583 h 11.1125 v -54.50417 h -12.7 v -1.5875 h 12.7 V 47.485684 H 56.97812 v 20.637501 h -1.5875 V 47.485684 h -15.875 v 5.027084 h -1.5875 v -6.614584 h 60.589586"
         id="path14"
         inkscape:label="East" /><path
         style="fill:none;fill-opacity:1;stroke:#ffffff;stroke-width:0.264583;stroke-linecap:square;stroke-linejoin:miter;stroke-dasharray:none;stroke-opacity:1;paint-order:markers stroke fill"
         d="m 37.13437,112.83777 h 18.25625 v -9.525 h 1.5875 v 9.525 h 11.112503 v 1.5875 H 37.13437 Z"
         id="KitchenS"
         inkscape:label="KitchenS" /><path
         style="fill:none;fill-opacity:1;stroke:#ffffff;stroke-width:0.264583;stroke-linecap:square;stroke-linejoin:miter;stroke-dasharray:none;stroke-opacity:1;paint-order:markers stroke fill"
         d="m 55.39062,76.060687 h 1.5875 v 5.027083 h -1.5875 z"
         id="KitchenN"
         inkscape:label="KitchenN" /></g><g
       id="HalfWalls"
       inkscape:label="HalfWalls"
       transform="translate(64.597922,-45.765893)"><path
         style="fill:none;fill-opacity:1;stroke:#ffffff;stroke-width:0.264583;stroke-linecap:butt;stroke-linejoin:miter;stroke-dasharray:0.264583, 0.264583;stroke-dashoffset:0;stroke-opacity:1;paint-order:markers stroke fill"
         d="M 43.48437,165.75444 V 130.56485"
         id="StairFence"
         inkscape:label="StairFence" /><path
         style="fill:none;fill-opacity:1;stroke:#ffffff;stroke-width:0.264583;stroke-linecap:butt;stroke-linejoin:miter;stroke-dasharray:0.264583, 0.264583;stroke-dashoffset:0;stroke-opacity:1;paint-order:markers stroke fill"
         d="m -7.0510458,87.43777 v -20.902085 0"
         id="BathTub"
         inkscape:label="BathTub" /><path
         style="fill:none;fill-opacity:1;stroke:#ffffff;stroke-width:0.264583;stroke-linecap:butt;stroke-linejoin:miter;stroke-dasharray:0.264583, 0.264583;stroke-dashoffset:0;stroke-opacity:1;paint-order:markers stroke fill"
         d="m 55.39062,103.31277 v -22.225 h 1.5875 l -3e-6,22.225 z"
         id="KitchenStump"
         inkscape:label="KitchenStump" /><path
         style="fill:none;fill-opacity:1;stroke:#ffffff;stroke-width:0.264583;stroke-linecap:butt;stroke-linejoin:miter;stroke-dasharray:0.264583, 0.264583;stroke-dashoffset:0;stroke-opacity:1;paint-order:markers stroke fill"
         d="M 58.036453,171.57527 H 84.759372"
         id="WindowSill"
         inkscape:label="WindowSill" /></g><g
       id="g15"
       inkscape:label="Furniture"
       transform="translate(64.597922,-45.765893)"><rect
         style="fill:none;fill-opacity:1;stroke:#808080;stroke-width:0.264583;stroke-linecap:butt;stroke-linejoin:miter;stroke-dasharray:none;stroke-dashoffset:0;stroke-opacity:1;paint-order:markers stroke fill"
         id="DiningTable"
         width="10.399495"
         height="19.83511"
         x="54.824413"
         y="87.994202"
         transform="rotate(-11.097616)"
         ry="0"
         inkscape:label="DiningTable" /><rect
         style="fill:none;fill-opacity:1;stroke:#808080;stroke-width:0.264583;stroke-linecap:butt;stroke-linejoin:miter;stroke-dasharray:none;stroke-dashoffset:0;stroke-opacity:1;paint-order:markers stroke fill"
         id="rect14"
         width="12.7"
         height="22.225"
         x="-47.532299"
         y="90.083603"
         inkscape:label="Bed" /><rect
         style="fill:none;fill-opacity:1;stroke:#808080;stroke-width:0.264583;stroke-linecap:butt;stroke-linejoin:miter;stroke-dasharray:none;stroke-dashoffset:0;stroke-opacity:1;paint-order:markers stroke fill"
         id="rect15"
         width="3.704169"
         height="21.695833"
         x="-21.338549"
         y="132.94611"
         inkscape:label="Shelf" /><rect
         style="fill:none;fill-opacity:1;stroke:#808080;stroke-width:0.264583;stroke-linecap:butt;stroke-linejoin:miter;stroke-dasharray:none;stroke-dashoffset:0;stroke-opacity:1;paint-order:markers stroke fill"
         id="Wardrobe"
         width="6.3499999"
         height="20.372917"
         x="-15.782298"
         y="91.671104"
         inkscape:label="Wardrobe" /></g><g
       id="g16"
       inkscape:label="Stairs"
       transform="translate(64.597922,-45.765893)"><rect
         style="fill:url(#pattern19);fill-opacity:1;stroke:none;stroke-width:0.264583;stroke-linecap:butt;stroke-linejoin:miter;stroke-dasharray:none;stroke-dashoffset:0;stroke-opacity:1;paint-order:markers stroke fill"
         id="StairsU"
         width="13.49375"
         height="21.43125"
         x="29.461451"
         y="130.56485"
         inkscape:label="StairsU" /><rect
         style="fill:url(#pattern19-9);fill-opacity:1;stroke:none;stroke-width:0.264583;stroke-linecap:butt;stroke-linejoin:miter;stroke-dasharray:none;stroke-dashoffset:0;stroke-opacity:1;paint-order:markers stroke fill"
         id="StairsD"
         width="13.229168"
         height="16.668743"
         x="13.586454"
         y="135.32736"
         inkscape:label="StairsD" /></g></g><g
     id="f1NPCs"
     inkscape:label="f1NPCs"
     transform="translate(64.597922,-45.765893)"><path
       d="m 30.133113,156.57809 q 0.410828,0 0.79065,0.10594 0.379822,0.10594 0.707967,0.29972 0.33073,0.19379 0.602031,0.46509 0.271302,0.2713 0.465088,0.60203 0.193787,0.32815 0.299724,0.70797 0.105937,0.37982 0.105937,0.79065 0,0.41083 -0.105937,0.79065 -0.105937,0.37982 -0.299724,0.71055 -0.193786,0.32815 -0.465088,0.59945 -0.271301,0.2713 -0.602031,0.46508 -0.328145,0.19379 -0.707967,0.29973 -0.379822,0.10593 -0.79065,0.10593 -0.410828,0 -0.79065,-0.10593 -0.379822,-0.10594 -0.710551,-0.29973 -0.328146,-0.19378 -0.599447,-0.46508 -0.271302,-0.2713 -0.465089,-0.59945 -0.193786,-0.33073 -0.299723,-0.71055 -0.105937,-0.37982 -0.105937,-0.79065 0,-0.41083 0.105937,-0.79065 0.105937,-0.37982 0.299723,-0.70797 0.193787,-0.33073 0.465089,-0.60203 0.271301,-0.2713 0.599447,-0.46509 0.330729,-0.19378 0.710551,-0.29972 0.379822,-0.10594 0.79065,-0.10594 z m 1.568381,0.89659 -3.643191,3.64319 q 0.02842,0.0388 0.05943,0.0775 0.03101,0.0362 0.06201,0.0724 l 3.669028,-3.67161 q -0.03617,-0.031 -0.07493,-0.062 -0.03617,-0.031 -0.07235,-0.0594 z m 0.384989,0.35915 -3.669029,3.66903 0.07235,0.062 q 0.03617,0.031 0.07493,0.0594 l 3.643191,-3.64319 q -0.02842,-0.0362 -0.05943,-0.0724 -0.03101,-0.0388 -0.06201,-0.0749 z m -0.847494,-0.6382 -3.459739,3.45973 q 0.04134,0.0904 0.09302,0.17829 l 3.542421,-3.54501 q -0.04392,-0.0258 -0.08785,-0.0491 -0.04392,-0.0233 -0.08785,-0.0439 z m 1.154969,1.07228 -3.542421,3.54242 q 0.04392,0.0258 0.08785,0.0491 0.04393,0.0232 0.08785,0.0439 l 3.459739,-3.45715 q -0.04393,-0.093 -0.09302,-0.17829 z m -1.710491,-1.2609 -3.092836,3.09283 q 0.01292,0.0543 0.02584,0.10852 0.0155,0.0543 0.03101,0.10594 l 3.25045,-3.25045 q -0.05426,-0.0155 -0.108521,-0.0284 -0.05168,-0.0155 -0.105937,-0.0284 z m 1.935284,1.77767 -3.25045,3.25045 q 0.05168,0.0155 0.105937,0.0284 0.05426,0.0155 0.108521,0.0284 l 3.092836,-3.09284 q -0.01292,-0.0543 -0.02842,-0.10593 -0.01292,-0.0543 -0.02842,-0.10852 z m -5.084964,0.69504 v 0.13695 q 0,0.031 0.0026,0.0646 l 2.728517,-2.72851 q -0.03359,-0.003 -0.06718,-0.003 H 30.06335 q -0.03359,0 -0.06976,0.003 l -2.457215,2.45721 q -0.0026,0.0362 -0.0026,0.0698 z m 2.738852,2.66651 2.457216,-2.45722 q 0.0026,-0.0362 0.0026,-0.0698 v -0.13436 q 0,-0.0336 -0.0026,-0.0672 l -2.728517,2.72852 q 0.03359,0.003 0.0646,0.003 h 0.136943 q 0.03359,0 0.06976,-0.003 z m -0.84491,-5.10047 q -0.02584,0.008 -0.09302,0.031 -0.0646,0.0207 -0.136943,0.0465 -0.07235,0.0258 -0.134359,0.0517 -0.05943,0.0258 -0.07235,0.0388 l -1.193726,1.19373 q -0.01292,0.0129 -0.03876,0.0749 -0.02584,0.0594 -0.05168,0.13436 -0.02584,0.0724 -0.04909,0.13952 -0.02067,0.0646 -0.02842,0.0904 z m 1.410768,5.00745 q 0.0155,-0.005 0.05168,-0.0181 0.03617,-0.0103 0.08268,-0.0258 0.04651,-0.0155 0.0956,-0.0336 0.04909,-0.0181 0.09302,-0.0362 0.04393,-0.0155 0.07493,-0.031 0.03101,-0.0129 0.03876,-0.0207 l 1.193726,-1.19631 q 0.01292,-0.0129 0.03876,-0.0724 0.02584,-0.062 0.05168,-0.13436 0.02584,-0.0723 0.04651,-0.13694 0.02325,-0.0672 0.03101,-0.093 z"
       id="B6pi_"
       style="font-size:5.29167px;line-height:0.86;font-family:Arial;-inkscape-font-specification:Arial;letter-spacing:0px;word-spacing:0px;fill:#ff8000;stroke:#ffffff;stroke-width:0.529167;stroke-linecap:square;paint-order:markers stroke fill"
       inkscape:label="B6pi_"
       aria-label="🔴" /><path
       d="m -40.047161,137.09885 q 0,0.41083 -0.105937,0.79065 -0.105936,0.37982 -0.299723,0.71055 -0.193787,0.32815 -0.465088,0.59945 -0.271302,0.2713 -0.602031,0.46509 -0.328146,0.19378 -0.707968,0.29972 -0.379822,0.10594 -0.79065,0.10594 -0.410827,0 -0.790649,-0.10594 -0.379822,-0.10594 -0.710552,-0.29972 -0.328145,-0.19379 -0.599447,-0.46509 -0.271301,-0.2713 -0.465088,-0.59945 -0.193787,-0.33073 -0.299723,-0.71055 -0.105937,-0.37982 -0.105937,-0.79065 0,-0.41083 0.105937,-0.79065 0.105936,-0.37982 0.299723,-0.70797 0.193787,-0.33073 0.465088,-0.60203 0.271302,-0.2713 0.599447,-0.46509 0.33073,-0.19378 0.710552,-0.29972 0.379822,-0.10594 0.790649,-0.10594 0.410828,0 0.79065,0.10594 0.379822,0.10594 0.707968,0.29972 0.330729,0.19379 0.602031,0.46509 0.271301,0.2713 0.465088,0.60203 0.193787,0.32815 0.299723,0.70797 0.105937,0.37982 0.105937,0.79065 z"
       id="B7i"
       style="font-size:5.29167px;line-height:0.86;font-family:Arial;-inkscape-font-specification:Arial;letter-spacing:0px;word-spacing:0px;fill:#ff8000;stroke:#ffffff;stroke-width:0.529167;stroke-linecap:square;paint-order:markers stroke fill"
       inkscape:label="B7i"
       aria-label="⚫" /><path
       d="m -6.7453783,159.3624 q 0,0.41083 -0.1059368,0.79065 -0.1059367,0.37982 -0.2997235,0.71055 -0.1937867,0.32815 -0.4650881,0.59945 -0.2713015,0.2713 -0.6020308,0.46509 -0.3281456,0.19378 -0.7079676,0.29972 -0.379822,0.10594 -0.7906499,0.10594 -0.410828,0 -0.79065,-0.10594 -0.379822,-0.10594 -0.710551,-0.29972 -0.328146,-0.19379 -0.599447,-0.46509 -0.271302,-0.2713 -0.465088,-0.59945 -0.193787,-0.33073 -0.299724,-0.71055 -0.105937,-0.37982 -0.105937,-0.79065 0,-0.41083 0.105937,-0.79065 0.105937,-0.37982 0.299724,-0.70797 0.193786,-0.33073 0.465088,-0.60203 0.271301,-0.2713 0.599447,-0.46509 0.330729,-0.19378 0.710551,-0.29972 0.379822,-0.10594 0.79065,-0.10594 0.4108279,0 0.7906499,0.10594 0.379822,0.10594 0.7079676,0.29972 0.3307293,0.19379 0.6020308,0.46509 0.2713014,0.2713 0.4650881,0.60203 0.1937868,0.32815 0.2997235,0.70797 0.1059368,0.37982 0.1059368,0.79065 z"
       id="B8"
       style="font-size:5.29167px;line-height:0.86;font-family:Arial;-inkscape-font-specification:Arial;letter-spacing:0px;word-spacing:0px;fill:#ff8000;stroke-width:0.529167;stroke-linecap:square;paint-order:markers stroke fill"
       inkscape:label="B8"
       aria-label="⚫" /><path
       d="m 23.562987,159.54949 q 0,0.41083 -0.105937,0.79065 -0.105937,0.37982 -0.299724,0.71055 -0.193786,0.32815 -0.465088,0.59945 -0.271301,0.2713 -0.602031,0.46508 -0.328145,0.19379 -0.707967,0.29973 -0.379822,0.10593 -0.79065,0.10593 -0.410828,0 -0.79065,-0.10593 -0.379822,-0.10594 -0.710551,-0.29973 -0.328146,-0.19378 -0.599447,-0.46508 -0.271302,-0.2713 -0.465089,-0.59945 -0.193786,-0.33073 -0.299723,-0.71055 -0.105937,-0.37982 -0.105937,-0.79065 0,-0.41083 0.105937,-0.79065 0.105937,-0.37982 0.299723,-0.70797 0.193787,-0.33073 0.465089,-0.60203 0.271301,-0.2713 0.599447,-0.46509 0.330729,-0.19378 0.710551,-0.29972 0.379822,-0.10594 0.79065,-0.10594 0.410828,0 0.79065,0.10594 0.379822,0.10594 0.707967,0.29972 0.33073,0.19379 0.602031,0.46509 0.271302,0.2713 0.465088,0.60203 0.193787,0.32815 0.299724,0.70797 0.105937,0.37982 0.105937,0.79065 z"
       id="B9_"
       style="font-size:5.29167px;line-height:0.86;font-family:Arial;-inkscape-font-specification:Arial;letter-spacing:0px;word-spacing:0px;fill:#ff8000;stroke-width:0.529167;stroke-linecap:square;paint-order:markers stroke fill"
       inkscape:label="B9_"
       aria-label="⚫" /><path
       d="m 58.361477,121.00922 q 0,0.41083 -0.105937,0.79065 -0.105936,0.37982 -0.299723,0.71055 -0.193787,0.32815 -0.465088,0.59945 -0.271302,0.2713 -0.602031,0.46509 -0.328146,0.19378 -0.707968,0.29972 -0.379822,0.10594 -0.79065,0.10594 -0.410827,0 -0.790649,-0.10594 -0.379822,-0.10594 -0.710552,-0.29972 -0.328145,-0.19379 -0.599447,-0.46509 -0.271301,-0.2713 -0.465088,-0.59945 -0.193787,-0.33073 -0.299723,-0.71055 -0.105937,-0.37982 -0.105937,-0.79065 0,-0.41083 0.105937,-0.79065 0.105936,-0.37982 0.299723,-0.70797 0.193787,-0.33073 0.465088,-0.60203 0.271302,-0.2713 0.599447,-0.46509 0.33073,-0.19378 0.710552,-0.29972 0.379822,-0.10594 0.790649,-0.10594 0.410828,0 0.79065,0.10594 0.379822,0.10594 0.707968,0.29972 0.330729,0.19379 0.602031,0.46509 0.271301,0.2713 0.465088,0.60203 0.193787,0.32815 0.299723,0.70797 0.105937,0.37982 0.105937,0.79065 z"
       id="B10"
       style="font-size:5.29167px;line-height:0.86;font-family:Arial;-inkscape-font-specification:Arial;letter-spacing:0px;word-spacing:0px;fill:#ff8000;stroke-width:0.529167;stroke-linecap:square;paint-order:markers stroke fill"
       inkscape:label="B10"
       aria-label="⚫" /><path
       d="m 4.6670292,83.965664 q 0,0.410828 -0.1059368,0.79065 -0.1059367,0.379822 -0.2997235,0.710551 -0.1937867,0.328146 -0.4650881,0.599447 -0.2713015,0.271302 -0.6020308,0.465088 -0.3281456,0.193787 -0.7079676,0.299724 -0.379822,0.105937 -0.7906499,0.105937 -0.4108278,0 -0.79064985,-0.105937 Q 0.52516064,86.725187 0.19443127,86.5314 -0.13371427,86.337614 -0.4050157,86.066312 -0.67631713,85.795011 -0.87010387,85.466865 -1.0638906,85.136136 -1.1698274,84.756314 q -0.1059367,-0.379822 -0.1059367,-0.79065 0,-0.410828 0.1059367,-0.79065 0.1059368,-0.379822 0.29972353,-0.707967 0.19378674,-0.33073 0.46508817,-0.602031 0.27130143,-0.271302 0.59944697,-0.465088 0.33072937,-0.193787 0.71055138,-0.299724 0.37982205,-0.105937 0.79064985,-0.105937 0.4108279,0 0.7906499,0.105937 0.379822,0.105937 0.7079676,0.299724 0.3307293,0.193786 0.6020308,0.465088 0.2713014,0.271301 0.4650881,0.602031 0.1937868,0.328145 0.2997235,0.707967 0.1059368,0.379822 0.1059368,0.79065 z"
       id="B11"
       style="font-size:5.29167px;line-height:0.86;font-family:Arial;-inkscape-font-specification:Arial;letter-spacing:0px;word-spacing:0px;fill:#ff8000;stroke-width:0.529167;stroke-linecap:square;paint-order:markers stroke fill"
       inkscape:label="B11"
       aria-label="⚫" /><path
       d="m 4.8541179,72.366169 q 0,0.410828 -0.1059367,0.79065 -0.1059368,0.379822 -0.2997235,0.710551 -0.1937868,0.328146 -0.4650882,0.599447 -0.2713014,0.271302 -0.6020308,0.465089 -0.3281455,0.193786 -0.7079675,0.299723 -0.3798221,0.105937 -0.7906499,0.105937 -0.4108279,0 -0.7906499,-0.105937 Q 0.71224937,75.125692 0.38152,74.931906 0.05337446,74.738119 -0.21792697,74.466817 -0.48922841,74.195516 -0.68301514,73.86737 -0.87680188,73.536641 -0.98273863,73.156819 -1.0886754,72.776997 -1.0886754,72.366169 q 0,-0.410828 0.10593677,-0.79065 0.10593675,-0.379822 0.29972349,-0.707967 0.19378673,-0.33073 0.46508817,-0.602031 0.27130143,-0.271302 0.59944697,-0.465088 0.33072937,-0.193787 0.7105514,-0.299724 0.379822,-0.105937 0.7906499,-0.105937 0.4108278,0 0.7906499,0.105937 0.379822,0.105937 0.7079675,0.299724 0.3307294,0.193786 0.6020308,0.465088 0.2713014,0.271301 0.4650882,0.602031 0.1937867,0.328145 0.2997235,0.707967 0.1059367,0.379822 0.1059367,0.79065 z"
       id="G1"
       style="font-size:5.29167px;line-height:0.86;font-family:Arial;-inkscape-font-specification:Arial;letter-spacing:0px;word-spacing:0px;fill:#0000ff;stroke-width:0.529167;stroke-linecap:square;paint-order:markers stroke fill"
       inkscape:label="G1"
       aria-label="⚫" /><path
       d="m -43.601848,123.06719 q 0,0.41083 -0.105937,0.79065 -0.105937,0.37982 -0.299724,0.71055 -0.193786,0.32815 -0.465088,0.59945 -0.271301,0.2713 -0.602031,0.46508 -0.328145,0.19379 -0.707967,0.29973 -0.379822,0.10594 -0.79065,0.10594 -0.410828,0 -0.79065,-0.10594 -0.379822,-0.10594 -0.710551,-0.29973 -0.328146,-0.19378 -0.599447,-0.46508 -0.271302,-0.2713 -0.465088,-0.59945 -0.193787,-0.33073 -0.299724,-0.71055 -0.105937,-0.37982 -0.105937,-0.79065 0,-0.41083 0.105937,-0.79065 0.105937,-0.37982 0.299724,-0.70797 0.193786,-0.33073 0.465088,-0.60203 0.271301,-0.2713 0.599447,-0.46509 0.330729,-0.19378 0.710551,-0.29972 0.379822,-0.10594 0.79065,-0.10594 0.410828,0 0.79065,0.10594 0.379822,0.10594 0.707967,0.29972 0.33073,0.19379 0.602031,0.46509 0.271302,0.2713 0.465088,0.60203 0.193787,0.32815 0.299724,0.70797 0.105937,0.37982 0.105937,0.79065 z"
       id="G2"
       style="font-size:5.29167px;line-height:0.86;font-family:Arial;-inkscape-font-specification:Arial;letter-spacing:0px;word-spacing:0px;fill:#0000ff;stroke-width:0.529167;stroke-linecap:square;paint-order:markers stroke fill"
       inkscape:label="G2"
       aria-label="⚫" /><path
       d="m 39.278431,152.44011 q 0,0.41083 -0.105937,0.79065 -0.105936,0.37983 -0.299723,0.71055 -0.193787,0.32815 -0.465088,0.59945 -0.271302,0.2713 -0.602031,0.46509 -0.328146,0.19379 -0.707968,0.29972 -0.379822,0.10594 -0.79065,0.10594 -0.410827,0 -0.790649,-0.10594 -0.379822,-0.10593 -0.710552,-0.29972 -0.328145,-0.19379 -0.599447,-0.46509 -0.271301,-0.2713 -0.465088,-0.59945 -0.193787,-0.33072 -0.299723,-0.71055 -0.105937,-0.37982 -0.105937,-0.79065 0,-0.41082 0.105937,-0.79065 0.105936,-0.37982 0.299723,-0.70796 0.193787,-0.33073 0.465088,-0.60204 0.271302,-0.2713 0.599447,-0.46508 0.33073,-0.19379 0.710552,-0.29973 0.379822,-0.10593 0.790649,-0.10593 0.410828,0 0.79065,0.10593 0.379822,0.10594 0.707968,0.29973 0.330729,0.19378 0.602031,0.46508 0.271301,0.27131 0.465088,0.60204 0.193787,0.32814 0.299723,0.70796 0.105937,0.37983 0.105937,0.79065 z"
       id="G3"
       style="font-size:5.29167px;line-height:0.86;font-family:Arial;-inkscape-font-specification:Arial;letter-spacing:0px;word-spacing:0px;fill:#0000ff;stroke-width:0.529167;stroke-linecap:square;paint-order:markers stroke fill"
       inkscape:label="G3"
       aria-label="⚫" /><path
       d="m 67.902996,136.91175 q 0,0.41083 -0.105937,0.79065 -0.105936,0.37982 -0.299723,0.71055 -0.193787,0.32814 -0.465088,0.59945 -0.271302,0.2713 -0.602031,0.46508 -0.328146,0.19379 -0.707968,0.29973 -0.379822,0.10593 -0.790649,0.10593 -0.410828,0 -0.79065,-0.10593 -0.379822,-0.10594 -0.710552,-0.29973 -0.328145,-0.19378 -0.599447,-0.46508 -0.271301,-0.27131 -0.465088,-0.59945 -0.193787,-0.33073 -0.299723,-0.71055 -0.105937,-0.37982 -0.105937,-0.79065 0,-0.41083 0.105937,-0.79065 0.105936,-0.37982 0.299723,-0.70797 0.193787,-0.33073 0.465088,-0.60203 0.271302,-0.2713 0.599447,-0.46509 0.33073,-0.19379 0.710552,-0.29972 0.379822,-0.10594 0.79065,-0.10594 0.410827,0 0.790649,0.10594 0.379822,0.10593 0.707968,0.29972 0.330729,0.19379 0.602031,0.46509 0.271301,0.2713 0.465088,0.60203 0.193787,0.32815 0.299723,0.70797 0.105937,0.37982 0.105937,0.79065 z"
       id="G4"
       style="font-size:5.29167px;line-height:0.86;font-family:Arial;-inkscape-font-specification:Arial;letter-spacing:0px;word-spacing:0px;fill:#0000ff;stroke-width:0.529167;stroke-linecap:square;paint-order:markers stroke fill"
       inkscape:label="G4"
       aria-label="⚫" /><path
       d="m 92.224522,59.082859 q 0,0.410828 -0.105937,0.79065 -0.105937,0.379822 -0.299723,0.710551 -0.193787,0.328146 -0.465089,0.599447 -0.271301,0.271302 -0.60203,0.465089 -0.328146,0.193786 -0.707968,0.299723 -0.379822,0.105937 -0.79065,0.105937 -0.410828,0 -0.79065,-0.105937 -0.379822,-0.105937 -0.710551,-0.299723 -0.328146,-0.193787 -0.599447,-0.465089 -0.271302,-0.271301 -0.465088,-0.599447 -0.193787,-0.330729 -0.299724,-0.710551 -0.105936,-0.379822 -0.105936,-0.79065 0,-0.410828 0.105936,-0.79065 0.105937,-0.379822 0.299724,-0.707967 0.193786,-0.33073 0.465088,-0.602031 0.271301,-0.271301 0.599447,-0.465088 0.330729,-0.193787 0.710551,-0.299724 0.379822,-0.105936 0.79065,-0.105936 0.410828,0 0.79065,0.105936 0.379822,0.105937 0.707968,0.299724 0.330729,0.193787 0.60203,0.465088 0.271302,0.271301 0.465089,0.602031 0.193786,0.328145 0.299723,0.707967 0.105937,0.379822 0.105937,0.79065 z"
       id="G5"
       style="font-size:5.29167px;line-height:0.86;font-family:Arial;-inkscape-font-specification:Arial;letter-spacing:0px;word-spacing:0px;fill:#0000ff;stroke-width:0.529167;stroke-linecap:square;paint-order:markers stroke fill"
       inkscape:label="G5"
       aria-label="⚫" /><path
       d="m 32.543236,102.86161 q 0,0.41083 -0.105937,0.79065 -0.105937,0.37983 -0.299723,0.71056 -0.193787,0.32814 -0.465088,0.59944 -0.271302,0.2713 -0.602031,0.46509 -0.328146,0.19379 -0.707968,0.29972 -0.379822,0.10594 -0.79065,0.10594 -0.410828,0 -0.79065,-0.10594 -0.379822,-0.10593 -0.710551,-0.29972 -0.328146,-0.19379 -0.599447,-0.46509 -0.271301,-0.2713 -0.465088,-0.59944 -0.193787,-0.33073 -0.299724,-0.71056 -0.105936,-0.37982 -0.105936,-0.79065 0,-0.41082 0.105936,-0.79065 0.105937,-0.37982 0.299724,-0.70796 0.193787,-0.33073 0.465088,-0.60203 0.271301,-0.27131 0.599447,-0.46509 0.330729,-0.19379 0.710551,-0.299726 0.379822,-0.105936 0.79065,-0.105936 0.410828,0 0.79065,0.105936 0.379822,0.105936 0.707968,0.299726 0.330729,0.19378 0.602031,0.46509 0.271301,0.2713 0.465088,0.60203 0.193786,0.32814 0.299723,0.70796 0.105937,0.37983 0.105937,0.79065 z m 0.726054,-0.0362 q 0.0155,-0.14728 0.12144,-0.29455 0.162781,-0.22221 0.534851,-0.49093 0.372071,-0.2713 0.441834,-0.34882 0.0956,-0.10593 0.0956,-0.21704 0,-0.12402 -0.09043,-0.20412 -0.09043,-0.0801 -0.266134,-0.0801 -0.170532,0 -0.255798,0.062 -0.08268,0.0594 -0.136943,0.23255 l -0.390157,-0.0413 q 0.07493,-0.28681 0.258382,-0.42117 0.186035,-0.13694 0.532268,-0.13694 0.390157,0 0.571024,0.15245 0.183452,0.15244 0.183452,0.37207 0,0.21704 -0.152446,0.41082 -0.116272,0.1447 -0.529683,0.44184 -0.214458,0.15761 -0.304892,0.25063 h 0.997356 v 0.31264 z"
       id="G6b"
       style="font-size:5.29167px;line-height:0.86;font-family:Arial;-inkscape-font-specification:Arial;letter-spacing:0px;word-spacing:0px;fill:#0000ff;stroke-width:0.529167;stroke-linecap:square;paint-order:markers stroke fill"
       inkscape:label="G6b"
       aria-label="⚫²" /><path
       d="m 62.125268,144.41732 q 0.410828,0 0.79065,0.10594 0.379822,0.10594 0.707967,0.29973 0.33073,0.19378 0.602031,0.46508 0.271302,0.2713 0.465088,0.60203 0.193787,0.32815 0.299724,0.70797 0.105937,0.37982 0.105937,0.79065 0,0.41083 -0.105937,0.79065 -0.105937,0.37982 -0.299724,0.71055 -0.193786,0.32815 -0.465088,0.59945 -0.271301,0.2713 -0.602031,0.46509 -0.328145,0.19378 -0.707967,0.29972 -0.379822,0.10594 -0.79065,0.10594 -0.410828,0 -0.79065,-0.10594 -0.379822,-0.10594 -0.710551,-0.29972 -0.328146,-0.19379 -0.599447,-0.46509 -0.271302,-0.2713 -0.465088,-0.59945 -0.193787,-0.33073 -0.299724,-0.71055 -0.105937,-0.37982 -0.105937,-0.79065 0,-0.41083 0.105937,-0.79065 0.105937,-0.37982 0.299724,-0.70797 0.193786,-0.33073 0.465088,-0.60203 0.271301,-0.2713 0.599447,-0.46508 0.330729,-0.19379 0.710551,-0.29973 0.379822,-0.10594 0.79065,-0.10594 z m 1.568381,0.89659 -3.643191,3.64319 q 0.02842,0.0388 0.05943,0.0775 0.03101,0.0362 0.06201,0.0723 l 3.669029,-3.67161 q -0.03617,-0.031 -0.07493,-0.062 -0.03617,-0.031 -0.07235,-0.0594 z m 0.384989,0.35915 -3.669029,3.66903 0.07235,0.062 q 0.03617,0.031 0.07493,0.0594 l 3.643191,-3.64319 q -0.02842,-0.0362 -0.05943,-0.0724 -0.03101,-0.0387 -0.06201,-0.0749 z m -0.847494,-0.6382 -3.459739,3.45974 q 0.04134,0.0904 0.09302,0.17828 l 3.542421,-3.545 q -0.04393,-0.0258 -0.08785,-0.0491 -0.04393,-0.0232 -0.08785,-0.0439 z m 1.154969,1.07229 -3.542421,3.54242 q 0.04393,0.0258 0.08785,0.0491 0.04393,0.0233 0.08785,0.0439 l 3.459739,-3.45715 q -0.04393,-0.093 -0.09302,-0.17828 z m -1.710491,-1.26091 -3.092836,3.09284 q 0.01292,0.0543 0.02584,0.10852 0.0155,0.0543 0.03101,0.10593 l 3.25045,-3.25045 q -0.05426,-0.0155 -0.108521,-0.0284 -0.05168,-0.0155 -0.105937,-0.0284 z m 1.935284,1.77767 -3.25045,3.25045 q 0.05168,0.0155 0.105937,0.0284 0.05426,0.0155 0.108521,0.0284 l 3.092836,-3.09283 q -0.01292,-0.0543 -0.02842,-0.10594 -0.01292,-0.0543 -0.02842,-0.10852 z m -5.084964,0.69505 v 0.13694 q 0,0.031 0.0026,0.0646 l 2.728517,-2.72852 q -0.03359,-0.003 -0.06718,-0.003 h -0.134359 q -0.03359,0 -0.06976,0.003 l -2.457215,2.45722 q -0.0026,0.0362 -0.0026,0.0698 z m 2.738852,2.6665 2.457216,-2.45721 q 0.0026,-0.0362 0.0026,-0.0698 v -0.13435 q 0,-0.0336 -0.0026,-0.0672 l -2.728517,2.72851 q 0.03359,0.003 0.0646,0.003 h 0.136942 q 0.03359,0 0.06976,-0.003 z m -0.84491,-5.10046 q -0.02584,0.008 -0.09302,0.031 -0.0646,0.0207 -0.136943,0.0465 -0.07235,0.0258 -0.134359,0.0517 -0.05943,0.0258 -0.07235,0.0388 l -1.193726,1.19372 q -0.01292,0.0129 -0.03876,0.0749 -0.02584,0.0594 -0.05168,0.13436 -0.02584,0.0724 -0.04909,0.13953 -0.02067,0.0646 -0.02842,0.0904 z m 1.410768,5.00745 q 0.0155,-0.005 0.05168,-0.0181 0.03617,-0.0103 0.08268,-0.0258 0.04651,-0.0155 0.0956,-0.0336 0.04909,-0.0181 0.09302,-0.0362 0.04393,-0.0155 0.07493,-0.031 0.03101,-0.0129 0.03876,-0.0207 l 1.193726,-1.19631 q 0.01292,-0.0129 0.03876,-0.0724 0.02584,-0.062 0.05168,-0.13435 0.02584,-0.0724 0.04651,-0.13695 0.02325,-0.0672 0.03101,-0.093 z"
       id="G7p"
       style="font-size:5.29167px;line-height:0.86;font-family:Arial;-inkscape-font-specification:Arial;letter-spacing:0px;word-spacing:0px;fill:#0000ff;stroke-width:0.529167;stroke-linecap:square;paint-order:markers stroke fill"
       inkscape:label="G7p"
       aria-label="🔴" /></g><g
     id="f1Patrols"
     inkscape:label="f1Patrols"
     transform="translate(64.597922,-45.765893)"><path
       style="display:inline;fill:none;fill-opacity:1;fill-rule:nonzero;stroke:#0000ff;stroke-width:1.5875;stroke-linecap:butt;stroke-linejoin:miter;stroke-dasharray:none;stroke-dashoffset:0;stroke-opacity:1;paint-order:markers stroke fill"
       d="m 59.623959,148.02736 c 0,-30.42708 0,-30.42708 0,-30.42708 H 2.7385408 V 80.558604 117.60028 H -26.365628 v -13.22917 h 7.9375 -7.9375 v -29.104173 0 0"
       id="G7"
       inkscape:label="G7" /><path
       style="fill:none;fill-opacity:1;fill-rule:nonzero;stroke:#ff8000;stroke-width:1.5875;stroke-linecap:butt;stroke-linejoin:miter;stroke-dasharray:none;stroke-dashoffset:0;stroke-opacity:1;paint-order:markers stroke fill"
       d="M 30.51979,158.61069 V 125.53777 H 54.332293 -30.334378 V 76.589854 h -26.458336 v 5.291666 0"
       id="B6"
       inkscape:label="B6" /></g></svg>
